<?xml version="1.0" encoding="UTF-8" ?>
<!DOCTYPE svg PUBLIC "-//W3C//DTD SVG 1.1//EN" "http://www.w3.org/Graphics/SVG/1.1/DTD/svg11.dtd">
<svg width="512pt" height="512pt" viewBox="0 0 512 512" version="1.1" xmlns="http://www.w3.org/2000/svg">
<g id="#71ce7aff">
<path fill="#71ce7a" opacity="1.00" d=" M 252.47 0.00 L 258.66 0.00 C 265.69 0.61 272.56 2.73 278.67 6.27 C 304.91 21.38 331.11 36.56 357.35 51.68 C 360.25 53.34 363.08 55.16 366.15 56.51 C 292.73 56.52 219.30 56.52 145.88 56.51 C 149.18 55.09 152.21 53.12 155.33 51.34 C 181.56 36.21 207.77 21.04 234.01 5.92 C 239.66 2.65 246.03 0.84 252.47 0.00 Z" />
<path fill="#71ce7a" opacity="1.00" d=" M 28.39 264.85 C 42.83 265.05 57.27 264.87 71.72 264.94 C 72.23 287.80 72.91 310.66 73.36 333.52 C 68.86 332.75 64.37 331.96 59.89 331.13 C 58.84 336.22 58.08 341.35 57.16 346.46 C 53.57 363.52 49.53 380.50 46.47 397.66 C 39.04 391.84 33.01 384.03 30.37 374.89 C 27.88 367.16 28.45 358.97 28.41 350.98 C 28.39 322.27 28.44 293.56 28.39 264.85 Z" />
<path fill="#71ce7a" opacity="1.00" d=" M 168.06 264.95 C 176.68 264.87 185.30 265.00 193.93 264.92 C 190.25 270.39 188.63 278.35 181.77 280.77 C 177.73 282.54 173.69 284.32 169.57 285.93 C 169.14 278.93 168.62 271.94 168.06 264.95 Z" />
<path fill="#71ce7a" opacity="1.00" d=" M 217.22 264.95 C 243.08 264.91 268.93 264.95 294.78 264.93 C 298.51 274.61 302.28 284.27 305.93 293.98 C 306.81 296.53 308.35 298.80 310.36 300.61 C 319.39 309.25 327.78 318.60 337.57 326.42 C 347.16 334.07 358.19 339.55 368.52 346.08 C 365.88 346.53 363.26 347.06 360.65 347.62 C 361.61 352.56 362.52 357.52 363.34 362.50 C 364.01 362.44 365.36 362.33 366.03 362.28 C 365.21 362.75 364.40 363.23 363.59 363.71 C 368.58 386.85 373.45 410.01 378.42 433.15 C 379.33 437.61 380.18 442.10 381.53 446.46 C 346.95 466.16 312.59 486.26 278.07 506.06 C 272.12 509.42 265.46 511.37 258.67 512.00 L 252.63 512.00 C 245.35 511.15 238.28 508.80 232.03 504.96 C 198.19 485.44 164.43 465.78 130.50 446.42 C 132.37 440.04 133.42 433.46 134.91 426.98 C 139.38 405.61 144.11 384.29 148.47 362.90 C 147.27 362.62 146.08 362.37 144.88 362.13 C 146.16 362.28 147.44 362.42 148.73 362.55 C 149.48 357.51 150.50 352.52 151.09 347.47 C 148.55 347.00 146.02 346.53 143.49 346.07 C 154.09 339.53 165.25 333.81 174.99 325.97 C 184.35 318.38 192.45 309.43 201.13 301.11 C 203.05 299.30 204.83 297.27 205.74 294.75 C 209.56 284.82 213.36 274.87 217.22 264.95 Z" />
<path fill="#71ce7a" opacity="1.00" d=" M 318.09 264.93 C 326.70 264.99 335.31 264.86 343.93 264.97 C 343.34 271.94 342.90 278.93 342.41 285.91 C 337.06 283.55 331.46 281.62 326.40 278.66 C 322.76 274.70 320.88 269.48 318.09 264.93 Z" />
<path fill="#71ce7a" opacity="1.00" d=" M 438.63 333.58 C 439.10 310.70 439.71 287.81 440.31 264.93 C 454.74 264.88 469.18 265.05 483.61 264.85 C 483.52 297.57 483.68 330.29 483.54 363.00 C 483.36 376.60 476.33 389.55 465.52 397.66 C 462.50 380.48 458.36 363.51 454.86 346.42 C 453.94 341.32 453.14 336.20 452.07 331.13 C 447.60 332.02 443.12 332.82 438.63 333.58 Z" />
</g>
<g id="#d9d9d9ff">
<path fill="#d9d9d9" opacity="1.00" d=" M 22.21 63.10 C 22.91 59.02 26.96 56.18 31.03 56.54 C 69.31 56.51 107.59 56.57 145.88 56.51 C 219.30 56.52 292.73 56.52 366.15 56.51 C 404.43 56.57 442.71 56.50 480.99 56.54 C 484.86 56.23 488.70 58.73 489.67 62.55 C 490.25 66.36 489.86 70.25 489.84 74.10 C 353.22 73.98 216.62 74.15 80.00 74.03 C 73.64 73.46 67.31 75.19 60.97 74.28 C 56.79 73.68 52.57 73.91 48.40 74.46 C 43.26 75.12 38.16 73.43 33.02 74.01 C 29.42 74.42 25.79 74.85 22.17 74.46 C 22.07 70.67 21.85 66.87 22.21 63.10 Z" />
<path fill="#d9d9d9" opacity="1.00" d=" M 410.59 191.38 C 414.82 191.34 419.05 191.25 423.28 191.06 C 423.54 191.46 424.05 192.24 424.31 192.63 C 420.94 192.81 417.59 193.03 414.24 193.26 C 413.66 194.57 413.09 195.88 412.52 197.19 C 411.87 195.25 411.22 193.31 410.59 191.38 Z" />
</g>
<g id="#e3e3e3ff">
<path fill="#e3e3e3" opacity="1.00" d=" M 22.17 74.46 C 25.79 74.85 29.42 74.42 33.02 74.01 C 38.16 73.43 43.26 75.12 48.40 74.46 C 52.57 73.91 56.79 73.68 60.97 74.28 C 67.31 75.19 73.64 73.46 80.00 74.03 C 216.62 74.15 353.22 73.98 489.84 74.10 C 489.59 135.08 489.86 196.07 489.71 257.06 C 489.82 260.76 486.99 263.76 483.61 264.85 C 469.18 265.05 454.74 264.88 440.31 264.93 C 440.42 260.74 440.53 256.54 440.58 252.35 C 443.16 252.36 445.73 252.38 448.32 252.38 C 448.33 248.03 449.15 243.40 447.22 239.31 C 446.35 237.37 443.65 238.22 441.98 237.65 L 442.14 236.81 C 444.17 236.47 446.22 236.27 448.27 236.03 C 448.36 231.82 449.17 227.33 447.27 223.38 C 446.43 222.61 445.59 221.85 444.75 221.10 C 444.78 220.88 444.85 220.43 444.88 220.20 C 456.33 220.42 467.79 220.37 479.25 220.23 C 479.28 213.82 479.31 207.42 479.38 201.02 C 479.46 199.03 478.97 197.08 477.98 195.35 C 477.76 194.92 477.32 194.06 477.09 193.63 C 469.37 193.61 461.65 193.75 453.94 193.56 C 450.70 193.43 447.47 193.85 444.33 194.59 C 443.45 193.53 442.54 192.50 441.65 191.46 C 454.15 191.22 466.65 191.62 479.15 191.22 C 479.32 184.80 479.42 178.38 479.33 171.96 C 479.35 169.98 478.74 168.09 477.97 166.30 C 477.87 166.05 477.65 165.54 477.55 165.29 C 469.40 163.98 461.14 164.92 452.94 164.73 C 445.19 164.52 437.44 164.74 429.70 164.80 C 429.72 168.78 429.62 172.77 428.84 176.69 C 427.19 174.77 425.59 172.81 423.92 170.92 C 424.47 169.64 424.47 168.06 423.48 166.99 C 423.10 166.44 422.33 165.32 421.95 164.76 C 414.02 165.23 405.87 163.48 398.12 165.63 C 397.05 164.83 395.97 164.03 394.92 163.22 C 402.25 162.72 409.62 163.47 416.93 162.76 C 417.75 158.21 417.12 153.58 417.31 148.99 C 417.25 145.37 417.98 141.50 416.17 138.16 C 415.05 145.44 416.37 152.82 415.39 160.10 C 415.29 152.06 415.31 144.02 415.31 135.98 C 407.88 136.33 400.43 135.86 393.01 136.12 C 391.34 135.87 391.44 137.86 391.33 138.92 C 391.19 146.02 391.61 153.13 391.07 160.23 C 389.39 158.99 387.69 157.77 386.04 156.49 C 385.99 150.42 387.51 143.93 385.14 138.15 C 384.44 143.88 384.67 149.67 384.71 155.43 C 384.44 155.22 383.88 154.79 383.60 154.57 C 384.80 149.48 384.40 144.22 384.44 139.04 C 384.39 138.05 384.52 136.26 383.01 136.37 C 375.65 135.48 368.23 136.18 360.85 136.32 C 360.05 142.17 360.26 148.08 360.26 153.97 C 360.26 156.17 360.54 158.40 361.36 160.46 C 361.61 161.07 362.11 162.30 362.37 162.91 C 365.05 162.91 367.74 162.91 370.44 162.88 C 371.22 163.47 372.00 164.06 372.78 164.66 C 371.03 164.81 369.10 164.51 367.57 165.54 C 367.37 169.46 367.75 173.41 367.09 177.31 C 365.49 175.87 363.72 174.63 361.86 173.58 C 362.47 171.50 362.51 169.17 361.33 167.27 C 361.02 166.66 360.40 165.43 360.09 164.82 C 354.16 164.88 348.19 163.80 342.30 164.85 C 341.07 164.28 339.85 163.73 338.63 163.18 C 344.02 163.06 349.47 163.50 354.83 162.76 C 355.75 158.21 355.16 153.55 355.36 148.95 C 355.28 145.36 356.01 141.48 354.11 138.21 C 353.19 145.33 354.04 152.51 353.68 159.65 L 353.24 160.00 C 353.49 153.67 353.09 147.33 353.47 141.00 C 353.42 139.41 353.81 137.66 352.99 136.20 C 345.13 136.14 337.25 135.79 329.40 136.29 C 329.03 143.82 329.86 151.37 329.16 158.90 C 327.45 158.12 325.77 157.32 324.08 156.51 C 323.95 150.43 325.58 143.90 323.10 138.13 C 322.49 144.06 322.65 150.04 322.98 155.99 C 322.22 155.92 320.69 155.79 319.92 155.73 C 321.10 155.21 322.42 154.57 322.25 153.02 C 322.62 148.69 322.36 144.33 322.44 139.99 C 322.29 138.81 322.63 137.39 321.81 136.41 C 317.27 135.58 312.64 136.13 308.07 136.10 C 304.93 136.20 301.74 135.90 298.65 136.63 C 298.07 140.75 298.43 144.92 298.31 149.06 C 298.32 152.80 297.85 156.71 299.27 160.29 C 299.54 160.93 300.08 162.22 300.35 162.87 C 305.23 163.01 310.12 163.05 315.00 163.03 C 315.15 163.52 315.45 164.52 315.60 165.02 C 312.33 164.70 309.05 164.64 305.77 164.76 C 305.65 171.78 305.64 178.81 305.68 185.83 C 303.87 185.68 302.05 185.52 300.24 185.38 C 299.98 179.06 301.59 172.35 299.17 166.33 C 298.55 164.66 296.42 165.12 295.03 164.81 C 288.33 164.50 281.61 164.40 274.93 165.02 C 274.51 172.51 274.06 180.11 275.41 187.54 C 274.83 189.55 274.36 191.59 273.85 193.62 C 268.85 193.62 263.85 193.67 258.86 193.76 C 259.02 201.82 257.97 209.93 259.15 217.95 C 260.28 220.79 263.48 220.31 265.94 220.38 C 272.05 220.30 278.16 220.42 284.27 220.22 C 284.53 213.25 284.60 206.27 284.20 199.31 C 286.03 199.52 287.87 199.67 289.71 199.87 C 289.83 205.94 289.34 212.04 290.21 218.07 C 291.17 219.25 292.32 220.41 294.00 220.24 C 301.07 220.58 308.17 220.28 315.26 220.17 C 315.40 216.67 315.49 213.17 315.54 209.68 C 318.41 214.32 321.23 218.99 324.07 223.66 C 323.27 223.76 321.68 223.97 320.88 224.08 C 320.55 232.12 320.41 240.23 321.18 248.26 C 321.98 249.19 322.57 250.66 324.01 250.73 C 329.47 251.53 335.00 250.83 340.48 250.64 C 341.76 252.75 343.23 254.78 344.08 257.12 C 344.53 259.71 344.08 262.36 343.93 264.97 C 335.31 264.86 326.70 264.99 318.09 264.93 C 315.02 259.55 311.30 254.43 306.46 250.50 C 309.95 250.33 313.44 250.17 316.93 250.00 C 317.27 241.79 317.49 233.53 316.66 225.35 C 314.17 232.40 316.84 240.07 315.14 247.30 C 314.78 239.30 315.44 231.29 314.79 223.30 C 277.86 223.30 240.94 223.32 204.01 223.27 C 198.83 223.41 193.64 223.49 188.48 222.87 C 191.31 218.29 194.00 213.63 196.77 209.01 C 196.47 212.01 196.67 215.03 197.18 217.99 C 198.36 220.84 201.53 220.32 204.01 220.37 C 210.10 220.24 216.20 220.45 222.29 220.20 C 222.59 213.44 222.46 206.68 222.27 199.92 C 224.09 199.67 225.92 199.47 227.75 199.25 C 227.68 205.51 227.46 211.80 228.23 218.04 C 229.51 220.67 232.53 220.28 234.97 220.37 C 241.07 220.36 247.18 220.36 253.28 220.15 C 253.12 211.79 254.54 203.19 252.44 195.01 C 251.53 194.32 250.63 193.43 249.38 193.57 C 245.51 193.51 241.64 193.56 237.78 193.21 C 237.82 192.54 237.91 191.18 237.95 190.50 C 238.27 182.41 239.44 174.00 237.33 166.09 C 235.99 165.36 234.54 164.73 232.98 164.73 C 226.33 164.42 219.66 164.55 213.02 165.01 C 212.68 171.76 211.85 178.65 213.39 185.31 C 211.30 185.47 209.21 185.59 207.13 185.76 C 207.01 179.38 208.79 172.47 206.14 166.45 C 205.88 165.98 205.36 165.04 205.10 164.57 C 202.16 164.65 199.23 164.73 196.29 164.86 C 196.46 164.47 196.80 163.68 196.97 163.29 C 197.75 163.16 199.33 162.89 200.12 162.76 C 200.41 154.56 200.64 146.31 199.92 138.13 C 197.02 144.91 200.24 152.61 198.16 159.63 C 198.88 151.88 197.97 144.09 198.51 136.33 C 190.59 135.55 182.65 136.55 174.72 135.97 C 173.98 143.89 174.45 151.86 174.32 159.80 C 176.28 159.88 178.24 159.97 180.21 159.98 C 176.29 161.72 172.50 163.74 168.55 165.44 C 162.74 163.88 156.71 164.88 150.80 164.97 C 150.80 167.81 150.81 170.64 150.86 173.47 C 148.87 174.42 146.97 175.56 145.21 176.89 C 145.59 173.41 146.00 169.62 144.15 166.45 C 143.92 166.01 143.44 165.11 143.21 164.67 C 141.84 164.70 140.48 164.73 139.11 164.76 C 140.73 163.47 142.37 162.21 144.02 160.98 L 144.20 160.87 C 145.27 161.84 146.37 163.05 147.98 162.91 C 154.98 163.37 162.01 163.12 169.01 162.84 C 169.53 156.25 169.41 149.63 169.36 143.02 C 169.43 141.30 168.69 139.74 167.95 138.24 C 167.64 137.58 167.32 136.92 166.99 136.27 C 159.31 136.08 151.61 135.68 143.94 136.29 C 143.44 140.21 143.18 144.15 143.17 148.10 C 141.52 148.14 139.87 148.15 138.22 148.23 C 138.48 144.83 138.92 141.14 137.05 138.08 C 136.20 135.46 133.16 136.09 131.02 136.00 C 124.96 136.24 118.91 136.12 112.86 136.00 C 112.80 144.09 111.72 152.38 113.44 160.34 C 113.66 160.94 114.09 162.14 114.30 162.74 C 114.98 162.89 116.32 163.19 117.00 163.35 C 115.90 164.15 114.78 164.93 113.68 165.74 C 105.49 163.45 96.89 165.21 88.51 164.74 C 88.55 166.39 88.85 168.02 89.42 169.57 C 88.01 171.08 86.67 172.65 85.30 174.19 C 84.91 171.45 84.51 168.67 83.46 166.09 C 82.48 165.28 81.36 164.62 80.03 164.73 C 72.71 164.64 65.37 164.57 58.05 164.73 C 50.15 164.88 42.22 164.11 34.35 165.15 C 34.26 173.09 33.03 181.28 35.13 189.05 C 35.42 189.57 36.01 190.62 36.30 191.14 C 47.62 191.78 58.96 191.04 70.29 191.48 C 69.42 192.50 68.54 193.51 67.70 194.55 C 63.86 193.57 59.88 193.39 55.94 193.57 C 48.66 193.86 41.37 193.38 34.10 193.79 C 33.99 199.53 34.37 205.26 34.06 210.99 C 33.91 213.36 34.04 215.78 35.07 217.95 C 35.38 218.48 36.00 219.54 36.32 220.07 C 46.57 220.63 56.87 220.28 67.14 220.19 C 67.28 221.09 67.42 221.99 67.56 222.89 C 63.64 224.38 64.81 228.73 64.73 231.97 C 65.01 237.41 64.16 242.92 65.21 248.32 C 66.38 250.81 68.92 251.25 71.41 251.31 C 71.50 255.86 71.61 260.40 71.72 264.94 C 57.27 264.87 42.83 265.05 28.39 264.85 C 24.99 263.77 22.15 260.74 22.30 257.02 C 22.14 196.17 22.40 135.31 22.17 74.46 M 84.85 88.84 C 84.92 92.83 84.96 96.81 84.99 100.80 L 85.65 100.78 C 85.84 101.29 86.22 102.30 86.41 102.81 C 94.29 103.85 102.37 103.13 110.32 103.13 C 110.43 100.41 110.56 97.69 110.51 94.96 C 110.28 93.42 110.88 91.19 108.98 90.46 C 108.93 90.13 108.82 89.47 108.76 89.14 C 100.93 87.90 92.79 88.90 84.85 88.84 M 116.83 88.74 C 116.49 92.71 116.40 96.71 116.98 100.66 L 117.62 100.65 C 117.72 101.25 117.92 102.46 118.02 103.06 C 126.08 103.44 134.19 103.36 142.26 103.09 C 141.86 99.02 143.93 93.70 140.95 90.47 C 140.95 90.09 140.96 89.32 140.97 88.93 C 132.93 88.51 124.87 88.54 116.83 88.74 M 148.90 88.95 C 148.55 91.95 148.14 94.97 148.26 98.00 C 148.47 98.98 148.02 100.91 149.65 100.62 C 149.77 101.22 150.01 102.41 150.13 103.01 C 158.12 103.70 166.17 103.13 174.18 103.18 C 174.24 99.25 174.74 95.26 173.98 91.37 L 172.74 90.54 C 172.73 90.19 172.73 89.49 172.72 89.14 C 164.83 88.16 156.82 88.58 148.90 88.95 M 180.33 99.96 C 188.22 100.87 196.18 100.25 204.10 100.11 L 204.05 100.84 C 196.70 100.72 189.33 100.50 181.99 100.96 C 181.89 101.50 181.70 102.59 181.60 103.14 C 189.75 103.31 197.90 103.43 206.05 103.14 C 205.57 98.94 207.87 93.56 204.67 90.22 C 204.90 88.27 202.20 88.79 201.00 88.58 C 194.33 88.79 187.65 88.50 180.98 88.71 C 179.09 91.84 180.54 96.31 180.33 99.96 M 212.21 88.91 C 211.87 92.80 211.84 96.71 212.17 100.60 C 220.10 99.76 228.06 100.83 236.00 100.17 L 235.96 100.80 C 228.57 100.81 221.15 100.41 213.77 100.99 C 213.79 101.50 213.84 102.53 213.86 103.04 C 221.92 103.57 230.04 103.21 238.12 103.18 C 238.08 99.29 238.38 95.36 237.76 91.50 C 237.38 91.29 236.61 90.87 236.22 90.66 C 236.21 90.21 236.18 89.31 236.17 88.86 C 228.19 88.73 220.18 88.23 212.21 88.91 M 243.93 88.72 C 243.92 92.74 244.03 96.76 244.15 100.79 L 244.56 100.77 C 244.91 101.35 245.59 102.49 245.94 103.06 C 253.87 103.49 261.86 103.43 269.80 102.99 C 269.77 99.12 270.16 95.22 269.67 91.38 C 269.26 91.16 268.43 90.72 268.01 90.50 C 268.01 90.08 268.00 89.25 268.00 88.83 C 259.98 88.40 251.95 88.75 243.93 88.72 M 275.84 88.79 C 275.53 92.75 275.53 96.74 275.97 100.69 L 276.68 100.68 C 276.79 101.27 277.03 102.45 277.15 103.04 C 285.18 103.49 293.26 103.30 301.31 103.14 C 300.92 99.02 302.95 93.84 300.03 90.47 C 300.03 90.05 300.02 89.22 300.02 88.80 C 291.96 88.63 283.89 88.53 275.84 88.79 M 308.18 89.08 C 307.48 92.73 307.10 96.60 307.66 100.27 C 307.91 100.37 308.42 100.58 308.67 100.68 C 308.81 101.25 309.09 102.40 309.23 102.97 C 317.20 103.63 325.25 103.19 333.25 103.16 C 332.79 99.08 335.04 93.50 331.79 90.46 C 331.79 90.14 331.79 89.49 331.79 89.17 C 323.98 88.22 315.98 88.37 308.18 89.08 M 339.26 88.92 C 339.23 92.61 339.27 96.30 339.37 99.99 C 347.29 100.82 355.26 100.28 363.20 100.16 L 363.14 100.81 C 355.80 100.80 348.43 100.34 341.12 101.00 C 341.00 101.53 340.77 102.59 340.65 103.11 C 348.80 103.33 356.97 103.47 365.12 103.11 C 364.68 99.02 366.94 93.64 363.77 90.45 C 363.97 87.98 360.60 88.79 359.05 88.58 C 352.46 88.98 345.84 88.25 339.26 88.92 M 371.32 89.08 C 371.35 92.82 370.40 96.81 371.66 100.40 C 371.89 100.45 372.35 100.55 372.58 100.61 C 372.70 101.21 372.93 102.41 373.05 103.01 C 381.04 103.69 389.12 103.06 397.15 103.23 C 396.62 99.00 398.59 93.66 395.60 90.23 C 395.37 88.37 393.37 88.88 392.05 88.73 C 385.14 88.74 378.19 88.17 371.32 89.08 M 402.99 88.74 C 402.98 92.66 403.07 96.59 403.22 100.51 C 411.13 100.30 419.05 100.31 426.96 100.25 L 426.94 100.74 C 419.53 100.89 412.09 100.39 404.70 100.99 C 404.71 101.51 404.72 102.54 404.72 103.06 C 412.77 103.48 420.87 103.41 428.92 103.04 C 428.94 99.14 429.33 95.23 428.91 91.35 C 428.46 91.18 427.56 90.84 427.11 90.67 C 427.10 90.20 427.08 89.25 427.07 88.77 C 419.05 88.46 411.01 88.73 402.99 88.74 M 34.27 107.12 C 33.82 114.08 34.11 121.04 34.24 127.99 C 34.36 129.05 34.05 130.74 35.53 130.92 C 35.67 131.47 35.96 132.56 36.10 133.11 C 44.03 133.78 52.05 133.46 60.01 133.21 C 60.17 126.80 60.23 120.39 60.18 113.98 C 59.98 112.11 60.50 109.51 58.30 108.65 C 58.29 108.24 58.27 107.42 58.26 107.01 C 50.26 107.08 42.24 106.15 34.27 107.12 M 65.14 107.00 C 65.41 113.66 64.93 120.31 65.01 126.97 C 65.20 128.23 64.82 130.56 66.53 130.83 C 66.66 131.41 66.92 132.57 67.05 133.14 C 75.02 133.76 83.08 133.49 91.07 133.18 C 91.39 125.37 90.98 117.54 91.15 109.72 C 90.66 109.53 89.69 109.13 89.20 108.93 C 89.19 108.43 89.17 107.43 89.16 106.93 C 81.16 106.38 73.15 106.96 65.14 107.00 M 96.16 107.01 C 95.74 114.02 96.37 121.02 96.12 128.03 C 96.01 129.12 96.09 130.70 97.44 130.93 C 97.62 131.46 97.97 132.52 98.14 133.06 C 106.03 133.90 114.03 133.38 121.95 133.24 C 122.07 126.84 122.28 120.44 122.19 114.04 C 121.97 112.14 122.44 109.56 120.26 108.62 C 120.25 108.18 120.22 107.28 120.21 106.84 C 112.19 107.19 104.15 106.17 96.16 107.01 M 127.21 106.97 C 127.30 113.66 126.93 120.34 127.02 127.02 C 127.19 128.29 126.82 130.45 128.50 130.82 C 128.62 131.40 128.84 132.55 128.95 133.12 C 136.92 133.68 144.97 133.60 152.95 133.16 C 153.48 126.78 153.06 120.39 153.15 114.00 C 152.99 112.10 153.56 109.42 151.24 108.64 C 151.13 108.29 150.90 107.60 150.78 107.25 C 143.09 105.74 135.04 107.35 127.21 106.97 M 158.18 107.05 C 157.77 113.72 158.45 120.40 158.08 127.08 C 158.16 128.33 157.77 130.74 159.51 130.92 C 159.64 131.46 159.91 132.54 160.04 133.08 C 167.99 133.80 176.04 133.42 184.02 133.23 C 184.12 127.15 184.04 121.07 184.27 114.99 C 184.14 112.76 184.67 109.83 182.29 108.61 C 182.28 108.17 182.27 107.29 182.27 106.86 C 174.24 107.13 166.19 106.27 158.18 107.05 M 189.28 107.18 C 189.25 114.12 188.74 121.08 189.14 128.02 C 189.21 129.06 189.30 130.53 190.52 130.88 C 190.65 131.44 190.91 132.56 191.04 133.12 C 198.98 133.65 207.00 133.62 214.95 133.18 C 215.38 126.78 215.17 120.36 215.14 113.96 C 215.00 112.05 215.39 109.52 213.20 108.63 C 213.18 108.26 213.15 107.51 213.13 107.14 C 205.21 106.29 197.21 106.69 189.28 107.18 M 220.12 106.98 C 219.98 114.93 220.14 122.88 220.11 130.82 C 220.43 130.83 221.08 130.85 221.40 130.87 C 221.60 131.41 221.98 132.51 222.17 133.06 C 230.08 133.93 238.12 133.34 246.08 133.25 C 246.17 127.15 245.97 121.05 246.24 114.95 C 246.16 112.72 246.74 109.78 244.28 108.64 C 244.28 108.19 244.28 107.30 244.27 106.85 C 236.22 107.01 228.16 106.48 220.12 106.98 M 251.39 107.23 C 250.97 114.16 250.75 121.13 251.21 128.07 C 251.45 128.94 251.20 130.82 252.47 130.90 C 252.62 131.45 252.92 132.54 253.07 133.09 C 260.97 133.84 268.97 133.43 276.89 133.22 C 277.35 126.15 277.22 119.06 277.04 111.98 C 277.26 110.47 276.47 109.35 275.22 108.61 C 275.21 108.26 275.19 107.54 275.18 107.18 C 267.27 106.57 259.29 106.32 251.39 107.23 M 282.09 106.98 C 282.29 114.95 281.90 122.92 282.24 130.89 C 282.53 130.89 283.13 130.90 283.42 130.90 C 283.61 131.48 283.97 132.63 284.16 133.20 C 292.13 133.65 300.17 133.48 308.16 133.26 C 308.25 127.17 307.80 121.08 308.17 115.00 C 308.19 112.73 308.80 109.76 306.24 108.64 C 306.23 108.22 306.23 107.37 306.22 106.95 C 298.19 106.60 290.12 106.80 282.09 106.98 M 313.29 107.18 C 312.62 115.06 313.14 122.96 313.29 130.84 C 313.57 130.85 314.12 130.87 314.40 130.88 C 314.56 131.45 314.89 132.60 315.06 133.17 C 322.99 133.71 331.00 133.58 338.95 133.15 C 339.12 126.09 339.37 119.02 339.03 111.96 C 339.14 110.51 338.53 109.31 337.24 108.63 C 337.23 108.24 337.21 107.46 337.21 107.07 C 329.24 106.81 321.23 106.17 313.29 107.18 M 344.27 107.17 C 343.59 110.40 344.31 113.71 344.17 116.98 C 344.00 121.61 343.78 126.24 344.23 130.87 C 344.52 130.87 345.10 130.88 345.40 130.89 C 345.57 131.45 345.93 132.59 346.11 133.15 C 354.05 133.68 362.08 133.53 370.05 133.22 C 370.40 127.13 369.83 121.05 370.16 114.96 C 370.07 112.70 370.83 109.67 368.20 108.61 C 368.20 108.19 368.18 107.36 368.18 106.94 C 361.81 106.24 355.43 107.16 349.06 106.79 C 347.46 106.81 345.77 106.50 344.27 107.17 M 375.15 107.08 C 374.63 114.99 375.30 122.90 375.18 130.81 C 375.48 130.83 376.09 130.85 376.40 130.86 C 376.57 131.42 376.93 132.53 377.10 133.09 C 384.99 133.83 393.00 133.46 400.92 133.19 C 401.04 126.81 401.28 120.43 401.16 114.05 C 400.93 112.13 401.42 109.52 399.24 108.56 C 399.23 108.14 399.22 107.28 399.21 106.86 C 391.19 107.27 383.15 106.06 375.15 107.08 M 406.12 106.95 C 406.39 114.93 405.55 122.92 406.19 130.90 L 406.96 130.91 C 407.21 131.51 407.71 132.71 407.96 133.30 C 415.97 133.38 424.00 133.73 431.99 133.20 C 432.39 126.81 431.87 120.42 432.07 114.03 C 431.81 112.16 432.76 109.16 430.11 108.77 C 430.10 108.30 430.07 107.36 430.06 106.89 C 422.08 106.40 414.10 107.02 406.12 106.95 M 437.15 106.96 C 436.71 114.93 437.25 122.90 437.16 130.86 C 437.49 130.87 438.14 130.89 438.46 130.90 C 438.60 131.46 438.88 132.58 439.02 133.14 C 444.30 133.82 449.63 133.36 454.94 133.44 C 463.59 133.31 472.26 133.72 480.91 133.17 C 481.04 125.47 481.49 117.75 480.88 110.06 C 480.45 109.78 479.59 109.22 479.16 108.93 C 479.16 108.43 479.15 107.41 479.14 106.90 C 471.76 107.13 464.39 106.41 457.02 106.79 C 450.39 107.09 443.76 106.30 437.15 106.96 M 35.07 136.16 C 33.76 137.02 34.22 138.76 34.10 140.07 C 34.46 146.70 33.81 153.34 34.16 159.98 C 34.56 159.99 35.36 160.02 35.76 160.04 C 35.80 160.80 35.87 162.33 35.91 163.10 C 49.32 163.01 62.72 163.07 76.13 163.04 C 76.29 155.12 76.81 147.10 75.98 139.24 L 74.76 138.44 C 74.87 137.33 74.35 136.02 73.01 136.15 C 60.37 136.06 47.71 136.04 35.07 136.16 M 82.06 136.31 C 81.26 142.83 81.69 149.43 81.61 155.99 C 81.85 157.34 81.44 159.21 82.63 160.18 C 83.10 161.36 83.26 163.16 85.01 162.87 C 92.32 163.24 99.66 163.23 106.98 162.87 C 107.43 155.05 107.76 147.08 106.92 139.31 L 105.76 138.49 C 105.88 137.41 105.23 136.27 104.02 136.36 C 96.73 135.60 89.37 136.11 82.06 136.31 M 206.19 136.30 C 206.02 136.56 205.66 137.09 205.48 137.35 C 205.03 144.89 205.58 152.45 205.31 160.00 C 205.64 160.02 206.30 160.05 206.63 160.07 C 206.85 160.68 207.29 161.91 207.52 162.52 C 214.60 163.80 221.91 162.87 229.08 162.91 C 231.54 163.46 231.26 160.62 231.33 159.02 C 231.29 152.28 231.47 145.54 231.15 138.81 L 229.65 138.87 C 229.53 137.93 229.38 136.99 229.20 136.05 C 221.54 136.62 213.83 135.36 206.19 136.30 M 236.50 137.35 C 236.21 144.88 236.35 152.43 236.35 159.97 C 236.66 159.98 237.29 160.01 237.61 160.02 C 237.78 160.70 238.13 162.06 238.31 162.73 C 241.82 163.35 245.42 162.88 248.97 163.01 C 253.22 162.95 257.54 163.68 261.74 162.74 C 263.14 156.99 261.90 150.92 262.32 145.04 C 262.05 142.84 263.05 139.88 260.97 138.34 C 260.50 145.50 260.88 152.68 260.73 159.85 L 260.10 159.90 C 260.70 151.97 260.32 144.02 260.26 136.08 C 253.51 135.73 246.76 136.33 240.01 136.10 C 238.90 136.30 236.53 135.58 236.50 137.35 M 267.59 136.62 C 266.84 144.38 267.66 152.21 267.29 159.99 C 267.61 160.01 268.25 160.04 268.58 160.06 C 268.75 163.60 272.49 163.14 275.05 163.18 C 281.03 163.06 287.02 163.04 293.00 162.88 C 293.50 154.76 293.45 146.59 293.08 138.46 C 291.35 139.32 291.95 141.47 291.73 143.00 C 291.72 148.64 291.83 154.29 291.73 159.93 L 291.17 159.97 C 291.31 151.99 291.50 143.98 291.23 136.01 C 283.38 136.90 275.31 134.93 267.59 136.62 M 422.44 138.02 C 422.16 144.32 422.24 150.65 422.37 156.96 C 422.65 157.94 422.20 160.00 423.65 160.13 C 424.12 161.30 424.17 163.13 425.93 162.87 C 433.18 163.24 440.50 163.37 447.73 162.71 C 448.95 157.29 448.04 151.59 448.34 146.05 C 448.07 143.51 449.04 140.34 446.99 138.35 C 446.44 145.52 446.84 152.73 446.73 159.92 L 446.14 159.95 C 446.19 152.18 446.59 144.40 446.32 136.64 C 439.96 135.57 433.46 136.08 427.05 136.09 C 425.48 136.33 422.55 135.70 422.44 138.02 M 453.31 138.04 C 453.37 145.36 453.38 152.68 453.31 160.00 C 453.64 160.01 454.31 160.04 454.64 160.06 C 454.82 160.73 455.18 162.08 455.36 162.76 C 459.84 163.63 464.45 162.73 468.99 162.99 C 472.22 162.88 475.58 163.64 478.73 162.81 C 479.79 160.36 479.17 157.52 479.31 154.92 C 479.01 149.70 479.77 144.43 478.97 139.26 L 477.87 138.46 C 477.62 145.61 477.72 152.78 477.70 159.94 L 477.14 159.98 C 477.87 152.75 476.72 145.49 477.47 138.27 C 477.63 137.33 477.32 135.76 475.99 136.06 C 470.00 135.70 464.00 136.46 458.02 135.98 C 456.37 136.11 453.04 135.43 453.31 138.04 M 243.80 164.84 C 243.66 172.86 243.34 180.92 244.00 188.91 L 244.68 188.90 C 244.84 189.42 245.14 190.45 245.30 190.97 C 253.22 191.91 261.30 191.20 269.28 191.23 C 269.55 185.12 269.23 179.00 269.45 172.90 C 269.42 170.68 269.85 168.08 267.88 166.50 C 267.89 166.14 267.91 165.40 267.92 165.03 C 259.91 164.28 251.83 164.80 243.80 164.84 M 34.44 224.47 C 33.88 231.32 33.92 238.21 34.25 245.07 C 34.53 245.90 34.23 247.91 35.47 247.91 C 35.68 248.59 36.09 249.95 36.30 250.63 C 44.19 250.93 52.21 251.62 60.03 250.29 C 60.19 242.47 60.39 234.65 59.95 226.83 C 59.54 226.85 58.71 226.87 58.29 226.89 C 58.17 226.26 57.91 225.01 57.78 224.38 C 50.05 223.55 42.16 223.41 34.44 224.47 M 453.80 237.84 C 453.60 241.87 453.71 245.91 453.99 249.93 L 454.67 249.93 C 454.81 250.48 455.11 251.58 455.26 252.13 C 463.22 252.82 471.26 252.37 479.25 252.29 C 478.87 248.13 480.96 242.85 477.89 239.49 C 477.89 239.13 477.90 238.40 477.90 238.04 C 469.88 237.30 461.83 238.29 453.80 237.84 Z" />
<path fill="#e3e3e3" opacity="1.00" d=" M 176.24 180.51 C 178.05 179.23 179.88 177.97 181.71 176.71 C 181.55 180.94 181.35 185.25 182.58 189.36 C 182.92 189.87 183.61 190.88 183.95 191.39 C 183.11 192.22 182.28 193.08 181.48 193.96 C 176.37 193.43 171.21 193.40 166.10 193.92 C 165.71 199.53 164.96 205.25 166.45 210.77 C 164.49 212.99 162.49 215.18 160.51 217.38 C 160.56 212.33 160.49 207.28 159.99 202.26 C 161.33 198.50 162.87 194.82 164.45 191.16 C 168.37 191.42 172.30 191.43 176.23 191.26 C 176.40 187.68 176.41 184.09 176.24 180.51 Z" />
<path fill="#e3e3e3" opacity="1.00" d=" M 331.18 190.86 C 331.32 186.43 331.42 182.00 331.57 177.58 C 333.54 178.88 335.50 180.19 337.45 181.52 C 336.81 184.00 336.05 186.66 337.19 189.12 C 337.48 189.61 338.08 190.57 338.38 191.06 C 341.43 191.44 344.51 191.38 347.57 191.25 C 349.01 194.62 350.45 198.00 351.83 201.40 C 351.57 206.45 351.97 211.55 350.84 216.52 C 349.29 214.79 347.71 213.10 346.16 211.38 C 346.04 206.08 347.72 200.23 345.08 195.34 C 344.65 194.67 344.21 194.00 343.76 193.35 C 339.27 193.26 334.78 193.31 330.30 193.73 C 329.78 193.14 329.25 192.54 328.73 191.96 C 329.34 191.68 330.57 191.13 331.18 190.86 Z" />
<path fill="#e3e3e3" opacity="1.00" d=" M 87.40 193.07 C 87.99 192.14 88.58 191.23 89.18 190.31 C 93.08 191.84 97.29 191.46 101.38 191.41 C 100.73 193.31 100.08 195.21 99.50 197.13 C 99.28 196.83 98.83 196.25 98.61 195.96 C 96.43 191.82 91.14 193.73 87.40 193.07 Z" />
<path fill="#e3e3e3" opacity="1.00" d=" M 124.35 191.29 C 128.69 191.39 133.04 191.43 137.38 191.45 C 135.10 195.86 132.64 200.18 130.17 204.49 C 129.89 201.29 129.80 197.96 128.38 195.01 C 126.93 194.47 125.48 193.95 124.05 193.39 C 124.13 192.86 124.28 191.82 124.35 191.29 Z" />
<path fill="#e3e3e3" opacity="1.00" d=" M 374.65 191.41 C 378.98 191.41 383.31 191.36 387.64 191.25 C 387.73 191.87 387.91 193.09 388.00 193.71 C 386.33 193.80 384.66 193.89 383.00 193.99 C 382.76 198.03 382.48 202.08 382.68 206.13 C 380.00 201.22 377.24 196.36 374.65 191.41 Z" />
<path fill="#e3e3e3" opacity="1.00" d=" M 86.77 220.24 C 88.50 220.25 90.23 220.26 91.96 220.28 C 91.14 223.03 90.00 225.67 88.66 228.22 C 88.01 225.56 87.40 222.90 86.77 220.24 Z" />
<path fill="#e3e3e3" opacity="1.00" d=" M 152.19 220.24 C 154.11 220.24 156.03 220.24 157.95 220.23 C 156.71 221.60 155.47 222.97 154.24 224.34 C 153.36 224.15 151.60 223.78 150.72 223.60 C 151.21 222.47 151.70 221.36 152.19 220.24 Z" />
<path fill="#e3e3e3" opacity="1.00" d=" M 354.02 220.18 C 355.95 220.22 357.90 220.27 359.84 220.31 C 360.31 221.42 360.80 222.52 361.28 223.63 C 360.37 223.78 358.55 224.09 357.64 224.25 C 356.42 222.89 355.21 221.54 354.02 220.18 Z" />
<path fill="#e3e3e3" opacity="1.00" d=" M 420.10 220.31 C 421.83 220.28 423.56 220.26 425.30 220.24 C 424.82 223.06 423.89 225.76 422.85 228.41 C 421.84 225.74 420.96 223.03 420.10 220.31 Z" />
<path fill="#e3e3e3" opacity="1.00" d=" M 171.85 250.11 C 183.12 250.48 194.40 249.99 205.66 250.41 C 200.77 254.35 196.97 259.46 193.93 264.92 C 185.30 265.00 176.68 264.87 168.06 264.95 C 167.90 262.34 167.46 259.70 167.88 257.11 C 168.83 254.58 170.47 252.40 171.85 250.11 Z" />
<path fill="#e3e3e3" opacity="1.00" d=" M 218.93 250.27 C 243.62 250.26 268.32 250.16 293.01 250.32 C 289.68 255.03 293.11 260.32 294.78 264.93 C 268.93 264.95 243.08 264.91 217.22 264.95 C 218.95 260.33 222.32 254.98 218.93 250.27 Z" />
</g>
<g id="#fefefeff">
<path fill="#fefefe" opacity="1.00" d=" M 84.85 88.84 C 92.79 88.90 100.93 87.90 108.76 89.14 C 108.82 89.47 108.93 90.13 108.98 90.46 C 109.06 93.86 108.96 97.27 108.85 100.66 C 101.12 100.56 93.38 100.50 85.65 100.78 L 84.99 100.80 C 84.96 96.81 84.92 92.83 84.85 88.84 Z" />
<path fill="#fefefe" opacity="1.00" d=" M 116.83 88.74 C 124.87 88.54 132.93 88.51 140.97 88.93 C 140.96 89.32 140.95 90.09 140.95 90.47 C 140.86 93.84 140.75 97.20 140.62 100.56 C 132.95 100.70 125.28 100.53 117.62 100.65 L 116.98 100.66 C 116.40 96.71 116.49 92.71 116.83 88.74 Z" />
<path fill="#fefefe" opacity="1.00" d=" M 148.90 88.95 C 156.82 88.58 164.83 88.16 172.72 89.14 C 172.73 89.49 172.73 90.19 172.74 90.54 C 172.69 93.80 172.82 97.10 172.30 100.34 C 164.78 101.00 157.19 100.41 149.65 100.62 C 148.02 100.91 148.47 98.98 148.26 98.00 C 148.14 94.97 148.55 91.95 148.90 88.95 Z" />
<path fill="#fefefe" opacity="1.00" d=" M 180.33 99.96 C 180.54 96.31 179.09 91.84 180.98 88.71 C 187.65 88.50 194.33 88.79 201.00 88.58 C 202.20 88.79 204.90 88.27 204.67 90.22 C 204.53 93.52 204.29 96.81 204.10 100.11 C 196.18 100.25 188.22 100.87 180.33 99.96 Z" />
<path fill="#fefefe" opacity="1.00" d=" M 212.21 88.91 C 220.18 88.23 228.19 88.73 236.17 88.86 C 236.18 89.31 236.21 90.21 236.22 90.66 C 236.30 93.84 236.20 97.01 236.00 100.17 C 228.06 100.83 220.10 99.76 212.17 100.60 C 211.84 96.71 211.87 92.80 212.21 88.91 Z" />
<path fill="#fefefe" opacity="1.00" d=" M 243.93 88.72 C 251.95 88.75 259.98 88.40 268.00 88.83 C 268.00 89.25 268.01 90.08 268.01 90.50 C 268.02 93.89 267.96 97.28 267.85 100.68 C 260.09 100.54 252.32 100.51 244.56 100.77 L 244.15 100.79 C 244.03 96.76 243.92 92.74 243.93 88.72 Z" />
<path fill="#fefefe" opacity="1.00" d=" M 275.84 88.79 C 283.89 88.53 291.96 88.63 300.02 88.80 C 300.02 89.22 300.03 90.05 300.03 90.47 C 300.01 93.84 299.90 97.22 299.74 100.59 C 292.05 100.71 284.36 100.49 276.68 100.68 L 275.97 100.69 C 275.53 96.74 275.53 92.75 275.84 88.79 Z" />
<path fill="#fefefe" opacity="1.00" d=" M 308.18 89.08 C 315.98 88.37 323.98 88.22 331.79 89.17 C 331.79 89.49 331.79 90.14 331.79 90.46 C 331.77 93.85 331.72 97.23 331.66 100.61 C 324.00 100.58 316.33 100.57 308.67 100.68 C 308.42 100.58 307.91 100.37 307.66 100.27 C 307.10 96.60 307.48 92.73 308.18 89.08 Z" />
<path fill="#fefefe" opacity="1.00" d=" M 339.26 88.92 C 345.84 88.25 352.46 88.98 359.05 88.58 C 360.60 88.79 363.97 87.98 363.77 90.45 C 363.71 93.70 363.50 96.93 363.20 100.16 C 355.26 100.28 347.29 100.82 339.37 99.99 C 339.27 96.30 339.23 92.61 339.26 88.92 Z" />
<path fill="#fefefe" opacity="1.00" d=" M 371.32 89.08 C 378.19 88.17 385.14 88.74 392.05 88.73 C 393.37 88.88 395.37 88.37 395.60 90.23 C 395.51 93.72 395.26 97.20 395.03 100.68 C 387.55 100.59 380.06 100.59 372.58 100.61 C 372.35 100.55 371.89 100.45 371.66 100.40 C 370.40 96.81 371.35 92.82 371.32 89.08 Z" />
<path fill="#fefefe" opacity="1.00" d=" M 402.99 88.74 C 411.01 88.73 419.05 88.46 427.07 88.77 C 427.08 89.25 427.10 90.20 427.11 90.67 C 427.15 93.87 427.09 97.06 426.96 100.25 C 419.05 100.31 411.13 100.30 403.22 100.51 C 403.07 96.59 402.98 92.66 402.99 88.74 Z" />
<path fill="#fefefe" opacity="1.00" d=" M 34.27 107.12 C 42.24 106.15 50.26 107.08 58.26 107.01 C 58.27 107.42 58.29 108.24 58.30 108.65 C 58.26 116.07 58.40 123.49 58.09 130.91 C 50.57 130.92 43.04 131.10 35.53 130.92 C 34.05 130.74 34.36 129.05 34.24 127.99 C 34.11 121.04 33.82 114.08 34.27 107.12 Z" />
<path fill="#fefefe" opacity="1.00" d=" M 65.14 107.00 C 73.15 106.96 81.16 106.38 89.16 106.93 C 89.17 107.43 89.19 108.43 89.20 108.93 C 89.28 116.24 89.57 123.56 88.96 130.85 C 81.49 131.04 74.00 131.11 66.53 130.83 C 64.82 130.56 65.20 128.23 65.01 126.97 C 64.93 120.31 65.41 113.66 65.14 107.00 Z" />
<path fill="#fefefe" opacity="1.00" d=" M 96.16 107.01 C 104.15 106.17 112.19 107.19 120.21 106.84 C 120.22 107.28 120.25 108.18 120.26 108.62 C 120.26 116.05 120.42 123.48 120.09 130.91 C 112.54 130.95 104.99 131.07 97.44 130.93 C 96.09 130.70 96.01 129.12 96.12 128.03 C 96.37 121.02 95.74 114.02 96.16 107.01 Z" />
<path fill="#fefefe" opacity="1.00" d=" M 127.21 106.97 C 135.04 107.35 143.09 105.74 150.78 107.25 C 150.90 107.60 151.13 108.29 151.24 108.64 C 151.30 116.03 151.49 123.43 150.94 130.80 C 143.47 131.03 135.98 131.15 128.50 130.82 C 126.82 130.45 127.19 128.29 127.02 127.02 C 126.93 120.34 127.30 113.66 127.21 106.97 Z" />
<path fill="#fefefe" opacity="1.00" d=" M 158.18 107.05 C 166.19 106.27 174.24 107.13 182.27 106.86 C 182.27 107.29 182.28 108.17 182.29 108.61 C 182.16 116.03 182.46 123.47 182.08 130.89 C 174.56 131.00 167.03 131.03 159.51 130.92 C 157.77 130.74 158.16 128.33 158.08 127.08 C 158.45 120.40 157.77 113.72 158.18 107.05 Z" />
<path fill="#fefefe" opacity="1.00" d=" M 189.28 107.18 C 197.21 106.69 205.21 106.29 213.13 107.14 C 213.15 107.51 213.18 108.26 213.20 108.63 C 213.39 116.03 213.33 123.43 213.02 130.82 C 205.52 131.01 198.02 131.13 190.52 130.88 C 189.30 130.53 189.21 129.06 189.14 128.02 C 188.74 121.08 189.25 114.12 189.28 107.18 Z" />
<path fill="#fefefe" opacity="1.00" d=" M 220.12 106.98 C 228.16 106.48 236.22 107.01 244.27 106.85 C 244.28 107.30 244.28 108.19 244.28 108.64 C 244.11 116.04 244.46 123.46 244.08 130.86 C 236.52 131.06 228.96 131.01 221.40 130.87 C 221.08 130.85 220.43 130.83 220.11 130.82 C 220.14 122.88 219.98 114.93 220.12 106.98 Z" />
<path fill="#fefefe" opacity="1.00" d=" M 251.39 107.23 C 259.29 106.32 267.27 106.57 275.18 107.18 C 275.19 107.54 275.21 108.26 275.22 108.61 C 275.36 116.03 275.26 123.46 275.04 130.87 C 267.52 130.93 259.99 131.15 252.47 130.90 C 251.20 130.82 251.45 128.94 251.21 128.07 C 250.75 121.13 250.97 114.16 251.39 107.23 Z" />
<path fill="#fefefe" opacity="1.00" d=" M 282.09 106.98 C 290.12 106.80 298.19 106.60 306.22 106.95 C 306.23 107.37 306.23 108.22 306.24 108.64 C 306.12 116.05 306.47 123.47 306.05 130.87 C 298.51 131.09 290.96 130.96 283.42 130.90 C 283.13 130.90 282.53 130.89 282.24 130.89 C 281.90 122.92 282.29 114.95 282.09 106.98 Z" />
<path fill="#fefefe" opacity="1.00" d=" M 313.29 107.18 C 321.23 106.17 329.24 106.81 337.21 107.07 C 337.21 107.46 337.23 108.24 337.24 108.63 C 337.27 116.04 337.22 123.45 337.07 130.87 C 329.51 130.96 321.95 131.11 314.40 130.88 C 314.12 130.87 313.57 130.85 313.29 130.84 C 313.14 122.96 312.62 115.06 313.29 107.18 Z" />
<path fill="#fefefe" opacity="1.00" d=" M 344.27 107.17 C 345.77 106.50 347.46 106.81 349.06 106.79 C 355.43 107.16 361.81 106.24 368.18 106.94 C 368.18 107.36 368.20 108.19 368.20 108.61 C 368.15 116.02 368.46 123.44 367.99 130.84 C 360.46 131.11 352.93 130.98 345.40 130.89 C 345.10 130.88 344.52 130.87 344.23 130.87 C 343.78 126.24 344.00 121.61 344.17 116.98 C 344.31 113.71 343.59 110.40 344.27 107.17 Z" />
<path fill="#fefefe" opacity="1.00" d=" M 375.15 107.08 C 383.15 106.06 391.19 107.27 399.21 106.86 C 399.22 107.28 399.23 108.14 399.24 108.56 C 399.16 116.00 399.26 123.44 399.07 130.88 C 391.51 130.97 383.95 131.10 376.40 130.86 C 376.09 130.85 375.48 130.83 375.18 130.81 C 375.30 122.90 374.63 114.99 375.15 107.08 Z" />
<path fill="#fefefe" opacity="1.00" d=" M 406.12 106.95 C 414.10 107.02 422.08 106.40 430.06 106.89 C 430.07 107.36 430.10 108.30 430.11 108.77 C 430.23 116.11 430.40 123.47 429.93 130.81 C 422.27 131.12 414.61 130.99 406.96 130.91 L 406.19 130.90 C 405.55 122.92 406.39 114.93 406.12 106.95 Z" />
<path fill="#fefefe" opacity="1.00" d=" M 437.15 106.96 C 443.76 106.30 450.39 107.09 457.02 106.79 C 464.39 106.41 471.76 107.13 479.14 106.90 C 479.15 107.41 479.16 108.43 479.16 108.93 C 479.15 116.25 479.21 123.57 479.03 130.88 C 465.51 131.02 451.98 131.02 438.46 130.90 C 438.14 130.89 437.49 130.87 437.16 130.86 C 437.25 122.90 436.71 114.93 437.15 106.96 Z" />
<path fill="#fefefe" opacity="1.00" d=" M 35.07 136.16 C 47.71 136.04 60.37 136.06 73.01 136.15 C 74.35 136.02 74.87 137.33 74.76 138.44 C 74.58 145.61 74.75 152.77 74.67 159.94 C 61.71 160.45 48.72 160.27 35.76 160.04 C 35.36 160.02 34.56 159.99 34.16 159.98 C 33.81 153.34 34.46 146.70 34.10 140.07 C 34.22 138.76 33.76 137.02 35.07 136.16 Z" />
<path fill="#fefefe" opacity="1.00" d=" M 82.06 136.31 C 89.37 136.11 96.73 135.60 104.02 136.36 C 105.23 136.27 105.88 137.41 105.76 138.49 C 105.69 145.61 105.58 152.73 105.69 159.85 C 98.02 160.42 90.31 160.27 82.63 160.18 C 81.44 159.21 81.85 157.34 81.61 155.99 C 81.69 149.43 81.26 142.83 82.06 136.31 Z" />
<path fill="#fefefe" opacity="1.00" d=" M 112.86 136.00 C 118.91 136.12 124.96 136.24 131.02 136.00 C 133.16 136.09 136.20 135.46 137.05 138.08 C 136.72 141.70 136.55 145.34 136.68 148.97 C 131.11 152.08 126.36 156.40 121.21 160.12 C 118.62 160.18 116.03 160.26 113.44 160.34 C 111.72 152.38 112.80 144.09 112.86 136.00 Z" />
<path fill="#fefefe" opacity="1.00" d=" M 143.94 136.29 C 151.61 135.68 159.31 136.08 166.99 136.27 C 167.32 136.92 167.64 137.58 167.95 138.24 C 167.41 145.58 167.87 152.94 167.41 160.28 C 159.68 160.53 151.87 159.65 144.20 160.87 L 144.02 160.98 C 146.15 159.27 148.43 156.93 147.82 153.93 C 147.61 151.20 145.01 149.73 143.17 148.10 C 143.18 144.15 143.44 140.21 143.94 136.29 Z" />
<path fill="#fefefe" opacity="1.00" d=" M 174.72 135.97 C 182.65 136.55 190.59 135.55 198.51 136.33 C 197.97 144.09 198.88 151.88 198.16 159.63 L 197.92 160.58 C 196.13 158.38 194.23 155.39 190.95 155.75 C 187.13 156.45 183.80 158.62 180.21 159.98 C 178.24 159.97 176.28 159.88 174.32 159.80 C 174.45 151.86 173.98 143.89 174.72 135.97 Z" />
<path fill="#fefefe" opacity="1.00" d=" M 206.19 136.30 C 213.83 135.36 221.54 136.62 229.20 136.05 C 229.38 136.99 229.53 137.93 229.65 138.87 C 229.71 145.87 229.53 152.88 229.66 159.89 C 222.00 160.40 214.30 160.30 206.63 160.07 C 206.30 160.05 205.64 160.02 205.31 160.00 C 205.58 152.45 205.03 144.89 205.48 137.35 C 205.66 137.09 206.02 136.56 206.19 136.30 Z" />
<path fill="#fefefe" opacity="1.00" d=" M 236.50 137.35 C 236.53 135.58 238.90 136.30 240.01 136.10 C 246.76 136.33 253.51 135.73 260.26 136.08 C 260.32 144.02 260.70 151.97 260.10 159.90 C 252.62 160.50 245.10 160.28 237.61 160.02 C 237.29 160.01 236.66 159.98 236.35 159.97 C 236.35 152.43 236.21 144.88 236.50 137.35 Z" />
<path fill="#fefefe" opacity="1.00" d=" M 267.59 136.62 C 275.31 134.93 283.38 136.90 291.23 136.01 C 291.50 143.98 291.31 151.99 291.17 159.97 C 283.65 160.37 276.10 160.29 268.58 160.06 C 268.25 160.04 267.61 160.01 267.29 159.99 C 267.66 152.21 266.84 144.38 267.59 136.62 Z" />
<path fill="#fefefe" opacity="1.00" d=" M 298.65 136.63 C 301.74 135.90 304.93 136.20 308.07 136.10 C 312.64 136.13 317.27 135.58 321.81 136.41 C 322.63 137.39 322.29 138.81 322.44 139.99 C 322.36 144.33 322.62 148.69 322.25 153.02 C 322.42 154.57 321.10 155.21 319.92 155.73 C 317.64 156.46 315.73 157.93 314.72 160.14 C 309.57 160.28 304.42 160.20 299.27 160.29 C 297.85 156.71 298.32 152.80 298.31 149.06 C 298.43 144.92 298.07 140.75 298.65 136.63 Z" />
<path fill="#fefefe" opacity="1.00" d=" M 329.40 136.29 C 337.25 135.79 345.13 136.14 352.99 136.20 C 353.81 137.66 353.42 139.41 353.47 141.00 C 353.09 147.33 353.49 153.67 353.24 160.00 C 346.33 160.54 339.40 159.97 332.48 160.34 C 331.36 159.87 330.25 159.39 329.16 158.90 C 329.86 151.37 329.03 143.82 329.40 136.29 Z" />
<path fill="#fefefe" opacity="1.00" d=" M 360.85 136.32 C 368.23 136.18 375.65 135.48 383.01 136.37 C 384.52 136.26 384.39 138.05 384.44 139.04 C 384.40 144.22 384.80 149.48 383.60 154.57 C 379.22 151.55 374.44 146.54 368.60 148.58 C 363.84 150.15 362.54 156.83 366.60 159.91 C 364.85 160.10 363.10 160.28 361.36 160.46 C 360.54 158.40 360.26 156.17 360.26 153.97 C 360.26 148.08 360.05 142.17 360.85 136.32 Z" />
<path fill="#fefefe" opacity="1.00" d=" M 391.33 138.92 C 391.44 137.86 391.34 135.87 393.01 136.12 C 400.43 135.86 407.88 136.33 415.31 135.98 C 415.31 144.02 415.29 152.06 415.39 160.10 C 407.56 160.72 399.65 159.39 391.89 160.84 C 391.69 160.69 391.28 160.38 391.07 160.23 C 391.61 153.13 391.19 146.02 391.33 138.92 Z" />
<path fill="#fefefe" opacity="1.00" d=" M 422.44 138.02 C 422.55 135.70 425.48 136.33 427.05 136.09 C 433.46 136.08 439.96 135.57 446.32 136.64 C 446.59 144.40 446.19 152.18 446.14 159.95 C 438.65 160.31 431.14 160.34 423.65 160.13 C 422.20 160.00 422.65 157.94 422.37 156.96 C 422.24 150.65 422.16 144.32 422.44 138.02 Z" />
<path fill="#fefefe" opacity="1.00" d=" M 453.31 138.04 C 453.04 135.43 456.37 136.11 458.02 135.98 C 464.00 136.46 470.00 135.70 475.99 136.06 C 477.32 135.76 477.63 137.33 477.47 138.27 C 476.72 145.49 477.87 152.75 477.14 159.98 C 469.65 160.47 462.13 160.22 454.64 160.06 C 454.31 160.04 453.64 160.01 453.31 160.00 C 453.38 152.68 453.37 145.36 453.31 138.04 Z" />
<path fill="#fefefe" opacity="1.00" d=" M 342.30 164.85 C 348.19 163.80 354.16 164.88 360.09 164.82 C 360.40 165.43 361.02 166.66 361.33 167.27 C 360.79 169.19 360.46 171.23 360.98 173.20 C 354.61 170.75 348.49 167.71 342.30 164.85 Z" />
<path fill="#fefefe" opacity="1.00" d=" M 34.35 165.15 C 42.22 164.11 50.15 164.88 58.05 164.73 C 65.37 164.57 72.71 164.64 80.03 164.73 C 81.36 164.62 82.48 165.28 83.46 166.09 C 82.95 169.61 82.89 173.18 83.07 176.73 C 79.64 180.88 76.08 184.92 72.49 188.94 C 60.04 188.83 47.58 188.59 35.13 189.05 C 33.03 181.28 34.26 173.09 34.35 165.15 Z" />
<path fill="#fefefe" opacity="1.00" d=" M 88.51 164.74 C 96.89 165.21 105.49 163.45 113.68 165.74 C 111.32 167.56 108.61 169.39 107.67 172.39 C 105.75 177.87 104.17 183.46 102.23 188.93 C 98.18 188.84 94.14 188.66 90.10 188.91 C 93.26 183.95 96.43 179.01 99.61 174.07 C 98.66 171.87 98.46 168.73 95.92 167.71 C 93.59 166.89 91.37 168.50 89.42 169.57 C 88.85 168.02 88.55 166.39 88.51 164.74 Z" />
<path fill="#fefefe" opacity="1.00" d=" M 127.14 175.19 C 130.28 170.88 135.17 168.27 139.11 164.76 C 140.48 164.73 141.84 164.70 143.21 164.67 C 143.44 165.11 143.92 166.01 144.15 166.45 C 143.69 170.76 143.74 175.09 143.88 179.41 C 142.29 182.67 140.46 185.81 138.70 188.99 C 134.04 188.74 129.36 188.72 124.69 188.88 C 125.52 184.33 125.49 179.55 127.14 175.19 Z" />
<path fill="#fefefe" opacity="1.00" d=" M 150.80 164.97 C 156.71 164.88 162.74 163.88 168.55 165.44 C 162.66 168.13 156.79 170.88 150.86 173.47 C 150.81 170.64 150.80 167.81 150.80 164.97 Z" />
<path fill="#fefefe" opacity="1.00" d=" M 196.29 164.86 C 199.23 164.73 202.16 164.65 205.10 164.57 C 205.36 165.04 205.88 165.98 206.14 166.45 C 205.47 172.91 205.77 179.40 205.86 185.88 C 199.14 186.72 192.09 186.01 185.70 188.66 C 184.92 188.83 183.36 189.18 182.58 189.36 C 181.35 185.25 181.55 180.94 181.71 176.71 C 186.60 172.84 193.00 170.43 196.29 164.86 Z" />
<path fill="#fefefe" opacity="1.00" d=" M 213.02 165.01 C 219.66 164.55 226.33 164.42 232.98 164.73 C 234.54 164.73 235.99 165.36 237.33 166.09 C 236.41 173.37 236.66 180.75 236.87 188.07 C 235.02 186.27 232.88 184.39 230.16 184.29 C 224.55 183.95 218.98 184.97 213.39 185.31 C 211.85 178.65 212.68 171.76 213.02 165.01 Z" />
<path fill="#fefefe" opacity="1.00" d=" M 243.80 164.84 C 251.83 164.80 259.91 164.28 267.92 165.03 C 267.91 165.40 267.89 166.14 267.88 166.50 C 267.33 173.82 268.34 181.19 267.41 188.47 C 259.88 189.43 252.25 188.41 244.68 188.90 L 244.00 188.91 C 243.34 180.92 243.66 172.86 243.80 164.84 Z" />
<path fill="#fefefe" opacity="1.00" d=" M 274.93 165.02 C 281.61 164.40 288.33 164.50 295.03 164.81 C 296.42 165.12 298.55 164.66 299.17 166.33 C 298.56 172.62 298.67 178.95 298.78 185.26 C 293.51 184.94 288.26 184.19 282.98 184.20 C 280.07 184.07 277.58 185.81 275.41 187.54 C 274.06 180.11 274.51 172.51 274.93 165.02 Z" />
<path fill="#fefefe" opacity="1.00" d=" M 305.77 164.76 C 309.05 164.64 312.33 164.70 315.60 165.02 C 319.15 170.17 325.10 172.76 329.94 176.48 C 329.76 180.26 329.96 184.06 329.53 187.83 C 328.58 188.60 327.29 188.76 326.19 189.23 C 324.94 188.36 323.63 187.46 322.09 187.26 C 316.65 186.46 311.14 186.37 305.68 185.83 C 305.64 178.81 305.65 171.78 305.77 164.76 Z" />
<path fill="#fefefe" opacity="1.00" d=" M 367.57 165.54 C 369.10 164.51 371.03 164.81 372.78 164.66 C 376.60 168.03 381.15 170.63 384.46 174.55 C 386.66 178.94 386.33 184.12 387.29 188.86 C 382.64 188.80 377.99 188.82 373.34 188.99 C 371.12 185.17 368.98 181.31 367.09 177.31 C 367.75 173.41 367.37 169.46 367.57 165.54 Z" />
<path fill="#fefefe" opacity="1.00" d=" M 398.12 165.63 C 405.87 163.48 414.02 165.23 421.95 164.76 C 422.33 165.32 423.10 166.44 423.48 166.99 C 423.13 167.52 422.42 168.58 422.06 169.11 C 419.97 168.27 417.46 166.65 415.27 168.10 C 413.48 169.53 413.20 172.03 412.37 174.03 C 415.52 179.00 418.75 183.91 421.89 188.88 C 417.84 188.81 413.79 188.79 409.75 188.83 C 407.81 183.40 406.24 177.84 404.31 172.41 C 403.31 169.36 400.51 167.52 398.12 165.63 Z" />
<path fill="#fefefe" opacity="1.00" d=" M 429.70 164.80 C 437.44 164.74 445.19 164.52 452.94 164.73 C 461.14 164.92 469.40 163.98 477.55 165.29 C 477.65 165.54 477.87 166.05 477.97 166.30 C 477.19 173.78 477.96 181.31 477.22 188.79 C 464.65 188.96 452.07 188.56 439.51 189.01 C 435.91 184.93 432.33 180.85 428.84 176.69 C 429.62 172.77 429.72 168.78 429.70 164.80 Z" />
<path fill="#fefefe" opacity="1.00" d=" M 165.51 188.77 C 167.84 185.44 171.62 183.68 174.89 181.45 C 174.71 183.76 174.74 186.10 174.38 188.40 C 171.46 188.98 168.46 188.81 165.51 188.77 Z" />
<path fill="#fefefe" opacity="1.00" d=" M 337.19 189.12 C 336.05 186.66 336.81 184.00 337.45 181.52 C 340.57 183.72 344.08 185.55 346.44 188.64 C 343.35 188.80 340.27 188.94 337.19 189.12 Z" />
<path fill="#fefefe" opacity="1.00" d=" M 82.86 204.02 C 82.37 199.79 85.34 196.42 87.40 193.07 C 91.14 193.73 96.43 191.82 98.61 195.96 C 97.69 197.14 97.50 198.48 98.01 199.97 C 96.94 206.06 94.60 211.80 92.77 217.68 C 90.56 217.70 88.35 217.73 86.15 217.76 C 85.06 213.18 83.37 208.72 82.86 204.02 Z" />
<path fill="#fefefe" opacity="1.00" d=" M 237.78 193.21 C 241.64 193.56 245.51 193.51 249.38 193.57 C 250.63 193.43 251.53 194.32 252.44 195.01 C 251.40 202.40 252.02 209.88 251.90 217.31 C 244.03 218.17 236.10 217.20 228.23 218.04 C 227.46 211.80 227.68 205.51 227.75 199.25 C 231.85 199.07 236.61 197.70 237.78 193.21 Z" />
<path fill="#fefefe" opacity="1.00" d=" M 330.30 193.73 C 334.78 193.31 339.27 193.26 343.76 193.35 C 344.21 194.00 344.65 194.67 345.08 195.34 C 344.87 200.23 344.72 205.15 344.98 210.05 C 340.03 204.66 335.16 199.20 330.30 193.73 Z" />
<path fill="#fefefe" opacity="1.00" d=" M 414.24 193.26 C 417.59 193.03 420.94 192.81 424.31 192.63 C 426.47 196.10 429.60 199.59 429.13 203.97 C 428.62 208.66 426.91 213.11 425.88 217.70 C 423.67 217.68 421.45 217.67 419.25 217.67 C 416.95 210.86 414.79 204.01 412.52 197.19 C 413.09 195.88 413.66 194.57 414.24 193.26 Z" />
<path fill="#fefefe" opacity="1.00" d=" M 34.10 193.79 C 41.37 193.38 48.66 193.86 55.94 193.57 C 59.88 193.39 63.86 193.57 67.70 194.55 C 66.03 196.71 64.41 199.18 64.53 202.03 C 64.74 207.34 66.02 212.53 66.74 217.78 C 56.19 217.67 45.62 217.43 35.07 217.95 C 34.04 215.78 33.91 213.36 34.06 210.99 C 34.37 205.26 33.99 199.53 34.10 193.79 Z" />
<path fill="#fefefe" opacity="1.00" d=" M 124.05 193.39 C 125.48 193.95 126.93 194.47 128.38 195.01 C 127.77 199.46 127.96 203.95 128.00 208.42 C 126.34 211.72 124.47 214.91 122.75 218.17 C 122.02 217.57 121.30 216.98 120.58 216.38 C 121.84 208.73 122.90 201.05 124.05 193.39 Z" />
<path fill="#fefefe" opacity="1.00" d=" M 166.10 193.92 C 171.21 193.40 176.37 193.43 181.48 193.96 C 176.51 199.60 171.47 205.17 166.45 210.77 C 164.96 205.25 165.71 199.53 166.10 193.92 Z" />
<path fill="#fefefe" opacity="1.00" d=" M 258.86 193.76 C 263.85 193.67 268.85 193.62 273.85 193.62 C 275.84 196.86 279.04 199.08 282.94 199.12 C 282.90 205.15 282.95 211.19 282.82 217.23 C 274.97 218.32 267.03 217.17 259.15 217.95 C 257.97 209.93 259.02 201.82 258.86 193.76 Z" />
<path fill="#fefefe" opacity="1.00" d=" M 383.00 193.99 C 384.66 193.89 386.33 193.80 388.00 193.71 C 389.14 202.14 390.75 210.52 391.38 219.01 C 386.77 216.16 385.45 210.48 382.68 206.13 C 382.48 202.08 382.76 198.03 383.00 193.99 Z" />
<path fill="#fefefe" opacity="1.00" d=" M 444.33 194.59 C 447.47 193.85 450.70 193.43 453.94 193.56 C 461.65 193.75 469.37 193.61 477.09 193.63 C 477.32 194.06 477.76 194.92 477.98 195.35 C 477.02 202.18 477.96 209.07 477.50 215.91 C 477.44 218.23 474.58 217.54 473.05 217.74 C 463.79 217.60 454.53 217.73 445.27 217.67 C 445.86 210.09 450.29 201.09 444.33 194.59 Z" />
<path fill="#fefefe" opacity="1.00" d=" M 203.02 202.43 C 208.93 201.16 215.00 200.97 220.98 200.10 C 220.60 205.67 221.39 211.28 220.65 216.82 C 219.87 217.96 218.14 217.45 216.98 217.72 C 210.38 217.87 203.77 217.30 197.18 217.99 C 196.67 215.03 196.47 212.01 196.77 209.01 C 198.37 206.50 199.86 203.23 203.02 202.43 Z" />
<path fill="#fefefe" opacity="1.00" d=" M 289.71 199.87 C 296.10 200.74 302.57 201.16 308.90 202.42 C 311.46 202.90 312.78 205.37 314.10 207.35 C 313.93 210.66 313.86 213.98 313.84 217.30 C 305.99 218.22 298.06 217.12 290.21 218.07 C 289.34 212.04 289.83 205.94 289.71 199.87 Z" />
<path fill="#fefefe" opacity="1.00" d=" M 350.84 216.52 C 351.97 211.55 351.57 206.45 351.83 201.40 C 354.13 206.84 356.51 212.25 358.76 217.72 C 356.51 217.76 354.27 217.82 352.03 217.88 C 351.73 217.54 351.14 216.86 350.84 216.52 Z" />
<path fill="#fefefe" opacity="1.00" d=" M 153.21 217.87 C 155.03 213.43 156.77 208.95 158.94 204.67 C 158.85 208.85 158.99 213.04 158.93 217.23 C 157.03 217.46 155.12 217.67 153.21 217.87 Z" />
<path fill="#fefefe" opacity="1.00" d=" M 442.63 233.91 C 443.24 229.62 444.00 225.36 444.75 221.10 C 445.59 221.85 446.43 222.61 447.27 223.38 C 446.93 226.79 446.75 230.21 446.66 233.63 C 445.31 233.72 443.96 233.81 442.63 233.91 Z" />
<path fill="#fefefe" opacity="1.00" d=" M 173.34 247.69 C 178.42 239.44 183.30 231.07 188.48 222.87 C 193.64 223.49 198.83 223.41 204.01 223.27 C 240.94 223.32 277.86 223.30 314.79 223.30 C 315.44 231.29 314.78 239.30 315.14 247.30 C 310.94 247.63 306.72 247.61 302.51 247.65 C 300.18 247.65 297.85 247.63 295.52 247.60 C 269.20 247.52 242.88 247.49 216.56 247.62 C 214.19 247.62 211.83 247.63 209.46 247.62 C 197.42 247.55 185.38 247.40 173.34 247.69 Z" />
<path fill="#fefefe" opacity="1.00" d=" M 34.44 224.47 C 42.16 223.41 50.05 223.55 57.78 224.38 C 57.91 225.01 58.17 226.26 58.29 226.89 C 58.33 233.89 58.31 240.91 58.14 247.91 C 50.58 247.90 43.02 248.17 35.47 247.91 C 34.23 247.91 34.53 245.90 34.25 245.07 C 33.92 238.21 33.88 231.32 34.44 224.47 Z" />
<path fill="#fefefe" opacity="1.00" d=" M 64.73 231.97 C 64.81 228.73 63.64 224.38 67.56 222.89 C 68.78 231.21 70.70 239.44 71.30 247.84 C 69.27 247.99 67.24 248.14 65.21 248.32 C 64.16 242.92 65.01 237.41 64.73 231.97 Z" />
<path fill="#fefefe" opacity="1.00" d=" M 147.78 231.27 C 148.66 228.67 149.63 226.11 150.72 223.60 C 151.60 223.78 153.36 224.15 154.24 224.34 C 152.14 226.70 150.03 229.05 147.78 231.27 Z" />
<path fill="#fefefe" opacity="1.00" d=" M 320.88 224.08 C 321.68 223.97 323.27 223.76 324.07 223.66 C 328.99 231.78 333.96 239.88 338.86 248.02 C 332.96 247.89 327.06 247.85 321.18 248.26 C 320.41 240.23 320.55 232.12 320.88 224.08 Z" />
<path fill="#fefefe" opacity="1.00" d=" M 357.64 224.25 C 358.55 224.09 360.37 223.78 361.28 223.63 C 362.38 226.13 363.34 228.70 364.19 231.30 C 361.91 229.04 359.76 226.65 357.64 224.25 Z" />
<path fill="#fefefe" opacity="1.00" d=" M 441.98 237.65 C 443.65 238.22 446.35 237.37 447.22 239.31 C 446.99 242.80 446.78 246.30 446.72 249.81 C 444.68 249.87 442.65 249.93 440.62 250.00 C 440.69 245.85 441.21 241.72 441.98 237.65 Z" />
<path fill="#fefefe" opacity="1.00" d=" M 453.80 237.84 C 461.83 238.29 469.88 237.30 477.90 238.04 C 477.90 238.40 477.89 239.13 477.89 239.49 C 477.80 242.93 477.79 246.37 477.80 249.82 C 470.09 249.87 462.38 249.92 454.67 249.93 L 453.99 249.93 C 453.71 245.91 453.60 241.87 453.80 237.84 Z" />
<path fill="#fefefe" opacity="1.00" d=" M 59.89 331.13 C 64.37 331.96 68.86 332.75 73.36 333.52 C 96.73 337.72 120.11 341.91 143.49 346.07 C 146.02 346.53 148.55 347.00 151.09 347.47 C 150.50 352.52 149.48 357.51 148.73 362.55 C 147.44 362.42 146.16 362.28 144.88 362.13 C 115.63 356.96 86.41 351.63 57.16 346.46 C 58.08 341.35 58.84 336.22 59.89 331.13 Z" />
<path fill="#fefefe" opacity="1.00" d=" M 438.63 333.58 C 443.12 332.82 447.60 332.02 452.07 331.13 C 453.14 336.20 453.94 341.32 454.86 346.42 C 425.27 351.80 395.68 357.23 366.03 362.28 C 365.36 362.33 364.01 362.44 363.34 362.50 C 362.52 357.52 361.61 352.56 360.65 347.62 C 363.26 347.06 365.88 346.53 368.52 346.08 C 391.91 342.03 415.26 337.76 438.63 333.58 Z" />
</g>
<g id="#c6c6c4fe">
<path fill="#c6c6c4" opacity="1.00" d=" M 108.98 90.46 C 110.88 91.19 110.28 93.42 110.51 94.96 C 110.56 97.69 110.43 100.41 110.32 103.13 C 102.37 103.13 94.29 103.85 86.41 102.81 C 86.22 102.30 85.84 101.29 85.65 100.78 C 93.38 100.50 101.12 100.56 108.85 100.66 C 108.96 97.27 109.06 93.86 108.98 90.46 Z" />
<path fill="#c6c6c4" opacity="1.00" d=" M 140.95 90.47 C 143.93 93.70 141.86 99.02 142.26 103.09 C 134.19 103.36 126.08 103.44 118.02 103.06 C 117.92 102.46 117.72 101.25 117.62 100.65 C 125.28 100.53 132.95 100.70 140.62 100.56 C 140.75 97.20 140.86 93.84 140.95 90.47 Z" />
<path fill="#c6c6c4" opacity="1.00" d=" M 172.74 90.54 L 173.98 91.37 C 174.74 95.26 174.24 99.25 174.18 103.18 C 166.17 103.13 158.12 103.70 150.13 103.01 C 150.01 102.41 149.77 101.22 149.65 100.62 C 157.19 100.41 164.78 101.00 172.30 100.34 C 172.82 97.10 172.69 93.80 172.74 90.54 Z" />
<path fill="#c6c6c4" opacity="1.00" d=" M 204.10 100.11 C 204.29 96.81 204.53 93.52 204.67 90.22 C 207.87 93.56 205.57 98.94 206.05 103.14 C 197.90 103.43 189.75 103.31 181.60 103.14 C 181.70 102.59 181.89 101.50 181.99 100.96 C 189.33 100.50 196.70 100.72 204.05 100.84 L 204.10 100.11 Z" />
<path fill="#c6c6c4" opacity="1.00" d=" M 236.22 90.66 C 236.61 90.87 237.38 91.29 237.76 91.50 C 238.38 95.36 238.08 99.29 238.12 103.18 C 230.04 103.21 221.92 103.57 213.86 103.04 C 213.84 102.53 213.79 101.50 213.77 100.99 C 221.15 100.41 228.57 100.81 235.96 100.80 L 236.00 100.17 C 236.20 97.01 236.30 93.84 236.22 90.66 Z" />
<path fill="#c6c6c4" opacity="1.00" d=" M 268.01 90.50 C 268.43 90.72 269.26 91.16 269.67 91.38 C 270.16 95.22 269.77 99.12 269.80 102.99 C 261.86 103.43 253.87 103.49 245.94 103.06 C 245.59 102.49 244.91 101.35 244.56 100.77 C 252.32 100.51 260.09 100.54 267.85 100.68 C 267.96 97.28 268.02 93.89 268.01 90.50 Z" />
<path fill="#c6c6c4" opacity="1.00" d=" M 300.03 90.47 C 302.95 93.84 300.92 99.02 301.31 103.14 C 293.26 103.30 285.18 103.49 277.15 103.04 C 277.03 102.45 276.79 101.27 276.68 100.68 C 284.36 100.49 292.05 100.71 299.74 100.59 C 299.90 97.22 300.01 93.84 300.03 90.47 Z" />
<path fill="#c6c6c4" opacity="1.00" d=" M 331.79 90.46 C 335.04 93.50 332.79 99.08 333.25 103.16 C 325.25 103.19 317.20 103.63 309.23 102.97 C 309.09 102.40 308.81 101.25 308.67 100.68 C 316.33 100.57 324.00 100.58 331.66 100.61 C 331.72 97.23 331.77 93.85 331.79 90.46 Z" />
<path fill="#c6c6c4" opacity="1.00" d=" M 363.77 90.45 C 366.94 93.64 364.68 99.02 365.12 103.11 C 356.97 103.47 348.80 103.33 340.65 103.11 C 340.77 102.59 341.00 101.53 341.12 101.00 C 348.43 100.34 355.80 100.80 363.14 100.81 L 363.20 100.16 C 363.50 96.93 363.71 93.70 363.77 90.45 Z" />
<path fill="#c6c6c4" opacity="1.00" d=" M 395.03 100.68 C 395.26 97.20 395.51 93.72 395.60 90.23 C 398.59 93.66 396.62 99.00 397.15 103.23 C 389.12 103.06 381.04 103.69 373.05 103.01 C 372.93 102.41 372.70 101.21 372.58 100.61 C 380.06 100.59 387.55 100.59 395.03 100.68 Z" />
<path fill="#c6c6c4" opacity="1.00" d=" M 427.11 90.67 C 427.56 90.84 428.46 91.18 428.91 91.35 C 429.33 95.23 428.94 99.14 428.92 103.04 C 420.87 103.41 412.77 103.48 404.72 103.06 C 404.72 102.54 404.71 101.51 404.70 100.99 C 412.09 100.39 419.53 100.89 426.94 100.74 L 426.96 100.25 C 427.09 97.06 427.15 93.87 427.11 90.67 Z" />
<path fill="#c6c6c4" opacity="1.00" d=" M 58.30 108.65 C 60.50 109.51 59.98 112.11 60.18 113.98 C 60.23 120.39 60.17 126.80 60.01 133.21 C 52.05 133.46 44.03 133.78 36.10 133.11 C 35.96 132.56 35.67 131.47 35.53 130.92 C 43.04 131.10 50.57 130.92 58.09 130.91 C 58.40 123.49 58.26 116.07 58.30 108.65 Z" />
<path fill="#c6c6c4" opacity="1.00" d=" M 89.20 108.93 C 89.69 109.13 90.66 109.53 91.15 109.72 C 90.98 117.54 91.39 125.37 91.07 133.18 C 83.08 133.49 75.02 133.76 67.05 133.14 C 66.92 132.57 66.66 131.41 66.53 130.83 C 74.00 131.11 81.49 131.04 88.96 130.85 C 89.57 123.56 89.28 116.24 89.20 108.93 Z" />
<path fill="#c6c6c4" opacity="1.00" d=" M 120.26 108.62 C 122.44 109.56 121.97 112.14 122.19 114.04 C 122.28 120.44 122.07 126.84 121.95 133.24 C 114.03 133.38 106.03 133.90 98.14 133.06 C 97.97 132.52 97.62 131.46 97.44 130.93 C 104.99 131.07 112.54 130.95 120.09 130.91 C 120.42 123.48 120.26 116.05 120.26 108.62 Z" />
<path fill="#c6c6c4" opacity="1.00" d=" M 151.24 108.64 C 153.56 109.42 152.99 112.10 153.15 114.00 C 153.06 120.39 153.48 126.78 152.95 133.16 C 144.97 133.60 136.92 133.68 128.95 133.12 C 128.84 132.55 128.62 131.40 128.50 130.82 C 135.98 131.15 143.47 131.03 150.94 130.80 C 151.49 123.43 151.30 116.03 151.24 108.64 Z" />
<path fill="#c6c6c4" opacity="1.00" d=" M 182.29 108.61 C 184.67 109.83 184.14 112.76 184.27 114.99 C 184.04 121.07 184.12 127.15 184.02 133.23 C 176.04 133.42 167.99 133.80 160.04 133.08 C 159.91 132.54 159.64 131.46 159.51 130.92 C 167.03 131.03 174.56 131.00 182.08 130.89 C 182.46 123.47 182.16 116.03 182.29 108.61 Z" />
<path fill="#c6c6c4" opacity="1.00" d=" M 213.20 108.63 C 215.39 109.52 215.00 112.05 215.14 113.96 C 215.17 120.36 215.38 126.78 214.95 133.18 C 207.00 133.62 198.98 133.65 191.04 133.12 C 190.91 132.56 190.65 131.44 190.52 130.88 C 198.02 131.13 205.52 131.01 213.02 130.82 C 213.33 123.43 213.39 116.03 213.20 108.63 Z" />
<path fill="#c6c6c4" opacity="1.00" d=" M 244.28 108.64 C 246.74 109.78 246.16 112.72 246.24 114.95 C 245.97 121.05 246.17 127.15 246.08 133.25 C 238.12 133.34 230.08 133.93 222.17 133.06 C 221.98 132.51 221.60 131.41 221.40 130.87 C 228.96 131.01 236.52 131.06 244.08 130.86 C 244.46 123.46 244.11 116.04 244.28 108.64 Z" />
<path fill="#c6c6c4" opacity="1.00" d=" M 275.22 108.61 C 276.47 109.35 277.26 110.47 277.04 111.98 C 277.22 119.06 277.35 126.15 276.89 133.22 C 268.97 133.43 260.97 133.84 253.07 133.09 C 252.92 132.54 252.62 131.45 252.47 130.90 C 259.99 131.15 267.52 130.93 275.04 130.87 C 275.26 123.46 275.36 116.03 275.22 108.61 Z" />
<path fill="#c6c6c4" opacity="1.00" d=" M 306.24 108.64 C 308.80 109.76 308.19 112.73 308.17 115.00 C 307.80 121.08 308.25 127.17 308.16 133.26 C 300.17 133.48 292.13 133.65 284.16 133.20 C 283.97 132.63 283.61 131.48 283.42 130.90 C 290.96 130.96 298.51 131.09 306.05 130.87 C 306.47 123.47 306.12 116.05 306.24 108.64 Z" />
<path fill="#c6c6c4" opacity="1.00" d=" M 337.24 108.63 C 338.53 109.31 339.14 110.51 339.03 111.96 C 339.37 119.02 339.12 126.09 338.95 133.15 C 331.00 133.58 322.99 133.71 315.06 133.17 C 314.89 132.60 314.56 131.45 314.40 130.88 C 321.95 131.11 329.51 130.96 337.07 130.87 C 337.22 123.45 337.27 116.04 337.24 108.63 Z" />
<path fill="#c6c6c4" opacity="1.00" d=" M 368.20 108.61 C 370.83 109.67 370.07 112.70 370.16 114.96 C 369.83 121.05 370.40 127.13 370.05 133.22 C 362.08 133.53 354.05 133.68 346.11 133.15 C 345.93 132.59 345.57 131.45 345.40 130.89 C 352.93 130.98 360.46 131.11 367.99 130.84 C 368.46 123.44 368.15 116.02 368.20 108.61 Z" />
<path fill="#c6c6c4" opacity="1.00" d=" M 399.24 108.56 C 401.42 109.52 400.93 112.13 401.16 114.05 C 401.28 120.43 401.04 126.81 400.92 133.19 C 393.00 133.46 384.99 133.83 377.10 133.09 C 376.93 132.53 376.57 131.42 376.40 130.86 C 383.95 131.10 391.51 130.97 399.07 130.88 C 399.26 123.44 399.16 116.00 399.24 108.56 Z" />
<path fill="#c6c6c4" opacity="1.00" d=" M 430.11 108.77 C 432.76 109.16 431.81 112.16 432.07 114.03 C 431.87 120.42 432.39 126.81 431.99 133.20 C 424.00 133.73 415.97 133.38 407.96 133.30 C 407.71 132.71 407.21 131.51 406.96 130.91 C 414.61 130.99 422.27 131.12 429.93 130.81 C 430.40 123.47 430.23 116.11 430.11 108.77 Z" />
<path fill="#c6c6c4" opacity="1.00" d=" M 479.16 108.93 C 479.59 109.22 480.45 109.78 480.88 110.06 C 481.49 117.75 481.04 125.47 480.91 133.17 C 472.26 133.72 463.59 133.31 454.94 133.44 C 449.63 133.36 444.30 133.82 439.02 133.14 C 438.88 132.58 438.60 131.46 438.46 130.90 C 451.98 131.02 465.51 131.02 479.03 130.88 C 479.21 123.57 479.15 116.25 479.16 108.93 Z" />
<path fill="#c6c6c4" opacity="1.00" d=" M 74.76 138.44 L 75.98 139.24 C 76.81 147.10 76.29 155.12 76.13 163.04 C 62.72 163.07 49.32 163.01 35.91 163.10 C 35.87 162.33 35.80 160.80 35.76 160.04 C 48.72 160.27 61.71 160.45 74.67 159.94 C 74.75 152.77 74.58 145.61 74.76 138.44 Z" />
<path fill="#c6c6c4" opacity="1.00" d=" M 105.76 138.49 L 106.92 139.31 C 107.76 147.08 107.43 155.05 106.98 162.87 C 99.66 163.23 92.32 163.24 85.01 162.87 C 83.26 163.16 83.10 161.36 82.63 160.18 C 90.31 160.27 98.02 160.42 105.69 159.85 C 105.58 152.73 105.69 145.61 105.76 138.49 Z" />
<path fill="#c6c6c4" opacity="1.00" d=" M 137.05 138.08 C 138.92 141.14 138.48 144.83 138.22 148.23 C 137.84 148.42 137.07 148.79 136.68 148.97 C 136.55 145.34 136.72 141.70 137.05 138.08 Z" />
<path fill="#c6c6c4" opacity="1.00" d=" M 167.95 138.24 C 168.69 139.74 169.43 141.30 169.36 143.02 C 169.41 149.63 169.53 156.25 169.01 162.84 C 162.01 163.12 154.98 163.37 147.98 162.91 C 146.37 163.05 145.27 161.84 144.20 160.87 C 151.87 159.65 159.68 160.53 167.41 160.28 C 167.87 152.94 167.41 145.58 167.95 138.24 Z" />
<path fill="#c6c6c4" opacity="1.00" d=" M 198.16 159.63 C 200.24 152.61 197.02 144.91 199.92 138.13 C 200.64 146.31 200.41 154.56 200.12 162.76 C 199.33 162.89 197.75 163.16 196.97 163.29 C 197.20 162.61 197.68 161.25 197.92 160.58 L 198.16 159.63 Z" />
<path fill="#c6c6c4" opacity="1.00" d=" M 229.65 138.87 L 231.15 138.81 C 231.47 145.54 231.29 152.28 231.33 159.02 C 231.26 160.62 231.54 163.46 229.08 162.91 C 221.91 162.87 214.60 163.80 207.52 162.52 C 207.29 161.91 206.85 160.68 206.63 160.07 C 214.30 160.30 222.00 160.40 229.66 159.89 C 229.53 152.88 229.71 145.87 229.65 138.87 Z" />
<path fill="#c6c6c4" opacity="1.00" d=" M 260.97 138.34 C 263.05 139.88 262.05 142.84 262.32 145.04 C 261.90 150.92 263.14 156.99 261.74 162.74 C 257.54 163.68 253.22 162.95 248.97 163.01 C 245.42 162.88 241.82 163.35 238.31 162.73 C 238.13 162.06 237.78 160.70 237.61 160.02 C 245.10 160.28 252.62 160.50 260.10 159.90 L 260.73 159.85 C 260.88 152.68 260.50 145.50 260.97 138.34 Z" />
<path fill="#c6c6c4" opacity="1.00" d=" M 291.73 143.00 C 291.95 141.47 291.35 139.32 293.08 138.46 C 293.45 146.59 293.50 154.76 293.00 162.88 C 287.02 163.04 281.03 163.06 275.05 163.18 C 272.49 163.14 268.75 163.60 268.58 160.06 C 276.10 160.29 283.65 160.37 291.17 159.97 L 291.73 159.93 C 291.83 154.29 291.72 148.64 291.73 143.00 Z" />
<path fill="#c6c6c4" opacity="1.00" d=" M 323.10 138.13 C 325.58 143.90 323.95 150.43 324.08 156.51 L 322.98 155.99 C 322.65 150.04 322.49 144.06 323.10 138.13 Z" />
<path fill="#c6c6c4" opacity="1.00" d=" M 354.11 138.21 C 356.01 141.48 355.28 145.36 355.36 148.95 C 355.16 153.55 355.75 158.21 354.83 162.76 C 349.47 163.50 344.02 163.06 338.63 163.18 C 336.54 162.30 334.53 161.28 332.48 160.34 C 339.40 159.97 346.33 160.54 353.24 160.00 L 353.68 159.65 C 354.04 152.51 353.19 145.33 354.11 138.21 Z" />
<path fill="#c6c6c4" opacity="1.00" d=" M 385.14 138.15 C 387.51 143.93 385.99 150.42 386.04 156.49 C 385.71 156.23 385.04 155.70 384.71 155.43 C 384.67 149.67 384.44 143.88 385.14 138.15 Z" />
<path fill="#c6c6c4" opacity="1.00" d=" M 416.17 138.16 C 417.98 141.50 417.25 145.37 417.31 148.99 C 417.12 153.58 417.75 158.21 416.93 162.76 C 409.62 163.47 402.25 162.72 394.92 163.22 C 393.91 162.42 392.90 161.63 391.89 160.84 C 399.65 159.39 407.56 160.72 415.39 160.10 C 416.37 152.82 415.05 145.44 416.17 138.16 Z" />
<path fill="#c6c6c4" opacity="1.00" d=" M 446.99 138.35 C 449.04 140.34 448.07 143.51 448.34 146.05 C 448.04 151.59 448.95 157.29 447.73 162.71 C 440.50 163.37 433.18 163.24 425.93 162.87 C 424.17 163.13 424.12 161.30 423.65 160.13 C 431.14 160.34 438.65 160.31 446.14 159.95 L 446.73 159.92 C 446.84 152.73 446.44 145.52 446.99 138.35 Z" />
<path fill="#c6c6c4" opacity="1.00" d=" M 477.87 138.46 L 478.97 139.26 C 479.77 144.43 479.01 149.70 479.31 154.92 C 479.17 157.52 479.79 160.36 478.73 162.81 C 475.58 163.64 472.22 162.88 468.99 162.99 C 464.45 162.73 459.84 163.63 455.36 162.76 C 455.18 162.08 454.82 160.73 454.64 160.06 C 462.13 160.22 469.65 160.47 477.14 159.98 L 477.70 159.94 C 477.72 152.78 477.62 145.61 477.87 138.46 Z" />
<path fill="#c6c6c4" opacity="1.00" d=" M 113.44 160.34 C 116.03 160.26 118.62 160.18 121.21 160.12 C 119.81 161.20 118.42 162.29 117.00 163.35 C 116.32 163.19 114.98 162.89 114.30 162.74 C 114.09 162.14 113.66 160.94 113.44 160.34 Z" />
<path fill="#c6c6c4" opacity="1.00" d=" M 299.27 160.29 C 304.42 160.20 309.57 160.28 314.72 160.14 C 314.79 160.86 314.93 162.30 315.00 163.03 C 310.12 163.05 305.23 163.01 300.35 162.87 C 300.08 162.22 299.54 160.93 299.27 160.29 Z" />
<path fill="#c6c6c4" opacity="1.00" d=" M 361.36 160.46 C 363.10 160.28 364.85 160.10 366.60 159.91 C 367.84 160.95 369.14 161.90 370.44 162.88 C 367.74 162.91 365.05 162.91 362.37 162.91 C 362.11 162.30 361.61 161.07 361.36 160.46 Z" />
<path fill="#c6c6c4" opacity="1.00" d=" M 83.46 166.09 C 84.51 168.67 84.91 171.45 85.30 174.19 C 84.56 175.04 83.81 175.88 83.07 176.73 C 82.89 173.18 82.95 169.61 83.46 166.09 Z" />
<path fill="#c6c6c4" opacity="1.00" d=" M 144.15 166.45 C 146.00 169.62 145.59 173.41 145.21 176.89 C 144.88 177.52 144.21 178.78 143.88 179.41 C 143.74 175.09 143.69 170.76 144.15 166.45 Z" />
<path fill="#c6c6c4" opacity="1.00" d=" M 206.14 166.45 C 208.79 172.47 207.01 179.38 207.13 185.76 L 205.86 185.88 C 205.77 179.40 205.47 172.91 206.14 166.45 Z" />
<path fill="#c6c6c4" opacity="1.00" d=" M 237.33 166.09 C 239.44 174.00 238.27 182.41 237.95 190.50 C 237.68 189.89 237.14 188.68 236.87 188.07 C 236.66 180.75 236.41 173.37 237.33 166.09 Z" />
<path fill="#c6c6c4" opacity="1.00" d=" M 267.88 166.50 C 269.85 168.08 269.42 170.68 269.45 172.90 C 269.23 179.00 269.55 185.12 269.28 191.23 C 261.30 191.20 253.22 191.91 245.30 190.97 C 245.14 190.45 244.84 189.42 244.68 188.90 C 252.25 188.41 259.88 189.43 267.41 188.47 C 268.34 181.19 267.33 173.82 267.88 166.50 Z" />
<path fill="#c6c6c4" opacity="1.00" d=" M 299.17 166.33 C 301.59 172.35 299.98 179.06 300.24 185.38 L 298.78 185.26 C 298.67 178.95 298.56 172.62 299.17 166.33 Z" />
<path fill="#c6c6c4" opacity="1.00" d=" M 361.33 167.27 C 362.51 169.17 362.47 171.50 361.86 173.58 C 361.64 173.49 361.20 173.29 360.98 173.20 C 360.46 171.23 360.79 169.19 361.33 167.27 Z" />
<path fill="#c6c6c4" opacity="1.00" d=" M 423.48 166.99 C 424.47 168.06 424.47 169.64 423.92 170.92 C 423.28 170.32 422.66 169.72 422.06 169.11 C 422.42 168.58 423.13 167.52 423.48 166.99 Z" />
<path fill="#c6c6c4" opacity="1.00" d=" M 477.97 166.30 C 478.74 168.09 479.35 169.98 479.33 171.96 C 479.42 178.38 479.32 184.80 479.15 191.22 C 466.65 191.62 454.15 191.22 441.65 191.46 C 440.93 190.64 440.22 189.82 439.51 189.01 C 452.07 188.56 464.65 188.96 477.22 188.79 C 477.96 181.31 477.19 173.78 477.97 166.30 Z" />
<path fill="#c6c6c4" opacity="1.00" d=" M 329.94 176.48 C 330.35 176.76 331.16 177.31 331.57 177.58 C 331.42 182.00 331.32 186.43 331.18 190.86 C 330.57 191.13 329.34 191.68 328.73 191.96 C 327.90 191.03 327.06 190.11 326.19 189.23 C 327.29 188.76 328.58 188.60 329.53 187.83 C 329.96 184.06 329.76 180.26 329.94 176.48 Z" />
<path fill="#c6c6c4" opacity="1.00" d=" M 174.89 181.45 C 175.23 181.21 175.90 180.74 176.24 180.51 C 176.41 184.09 176.40 187.68 176.23 191.26 C 172.30 191.43 168.37 191.42 164.45 191.16 C 164.71 190.56 165.24 189.37 165.51 188.77 C 168.46 188.81 171.46 188.98 174.38 188.40 C 174.74 186.10 174.71 183.76 174.89 181.45 Z" />
<path fill="#c6c6c4" opacity="1.00" d=" M 35.13 189.05 C 47.58 188.59 60.04 188.83 72.49 188.94 C 71.75 189.78 71.02 190.63 70.29 191.48 C 58.96 191.04 47.62 191.78 36.30 191.14 C 36.01 190.62 35.42 189.57 35.13 189.05 Z" />
<path fill="#c6c6c4" opacity="1.00" d=" M 90.10 188.91 C 94.14 188.66 98.18 188.84 102.23 188.93 C 102.01 189.55 101.59 190.79 101.38 191.41 C 97.29 191.46 93.08 191.84 89.18 190.31 L 90.10 188.91 Z" />
<path fill="#c6c6c4" opacity="1.00" d=" M 124.69 188.88 C 129.36 188.72 134.04 188.74 138.70 188.99 C 138.37 189.60 137.71 190.83 137.38 191.45 C 133.04 191.43 128.69 191.39 124.35 191.29 C 124.44 190.69 124.61 189.48 124.69 188.88 Z" />
<path fill="#c6c6c4" opacity="1.00" d=" M 182.58 189.36 C 183.36 189.18 184.92 188.83 185.70 188.66 C 185.37 189.73 184.79 190.64 183.95 191.39 C 183.61 190.88 182.92 189.87 182.58 189.36 Z" />
<path fill="#c6c6c4" opacity="1.00" d=" M 337.19 189.12 C 340.27 188.94 343.35 188.80 346.44 188.64 C 346.72 189.29 347.29 190.60 347.57 191.25 C 344.51 191.38 341.43 191.44 338.38 191.06 C 338.08 190.57 337.48 189.61 337.19 189.12 Z" />
<path fill="#c6c6c4" opacity="1.00" d=" M 373.34 188.99 C 377.99 188.82 382.64 188.80 387.29 188.86 C 387.38 189.46 387.55 190.66 387.64 191.25 C 383.31 191.36 378.98 191.41 374.65 191.41 C 374.32 190.81 373.66 189.60 373.34 188.99 Z" />
<path fill="#c6c6c4" opacity="1.00" d=" M 409.75 188.83 C 413.79 188.79 417.84 188.81 421.89 188.88 C 422.24 189.42 422.93 190.52 423.28 191.06 C 419.05 191.25 414.82 191.34 410.59 191.38 C 410.38 190.74 409.96 189.47 409.75 188.83 Z" />
<path fill="#c6c6c4" opacity="1.00" d=" M 98.61 195.96 C 98.83 196.25 99.28 196.83 99.50 197.13 C 99.22 198.18 98.72 199.12 98.01 199.97 C 97.50 198.48 97.69 197.14 98.61 195.96 Z" />
<path fill="#c6c6c4" opacity="1.00" d=" M 128.38 195.01 C 129.80 197.96 129.89 201.29 130.17 204.49 C 129.44 205.79 128.70 207.10 128.00 208.42 C 127.96 203.95 127.77 199.46 128.38 195.01 Z" />
<path fill="#c6c6c4" opacity="1.00" d=" M 252.44 195.01 C 254.54 203.19 253.12 211.79 253.28 220.15 C 247.18 220.36 241.07 220.36 234.97 220.37 C 232.53 220.28 229.51 220.67 228.23 218.04 C 236.10 217.20 244.03 218.17 251.90 217.31 C 252.02 209.88 251.40 202.40 252.44 195.01 Z" />
<path fill="#c6c6c4" opacity="1.00" d=" M 345.08 195.34 C 347.72 200.23 346.04 206.08 346.16 211.38 C 345.86 211.05 345.28 210.38 344.98 210.05 C 344.72 205.15 344.87 200.23 345.08 195.34 Z" />
<path fill="#c6c6c4" opacity="1.00" d=" M 477.98 195.35 C 478.97 197.08 479.46 199.03 479.38 201.02 C 479.31 207.42 479.28 213.82 479.25 220.23 C 467.79 220.37 456.33 220.42 444.88 220.20 C 444.98 219.57 445.17 218.31 445.27 217.67 C 454.53 217.73 463.79 217.60 473.05 217.74 C 474.58 217.54 477.44 218.23 477.50 215.91 C 477.96 209.07 477.02 202.18 477.98 195.35 Z" />
<path fill="#c6c6c4" opacity="1.00" d=" M 282.94 199.12 L 284.20 199.31 C 284.60 206.27 284.53 213.25 284.27 220.22 C 278.16 220.42 272.05 220.30 265.94 220.38 C 263.48 220.31 260.28 220.79 259.15 217.95 C 267.03 217.17 274.97 218.32 282.82 217.23 C 282.95 211.19 282.90 205.15 282.94 199.12 Z" />
<path fill="#c6c6c4" opacity="1.00" d=" M 220.98 200.10 L 222.27 199.92 C 222.46 206.68 222.59 213.44 222.29 220.20 C 216.20 220.45 210.10 220.24 204.01 220.37 C 201.53 220.32 198.36 220.84 197.18 217.99 C 203.77 217.30 210.38 217.87 216.98 217.72 C 218.14 217.45 219.87 217.96 220.65 216.82 C 221.39 211.28 220.60 205.67 220.98 200.10 Z" />
<path fill="#c6c6c4" opacity="1.00" d=" M 158.94 204.67 C 159.20 204.06 159.73 202.86 159.99 202.26 C 160.49 207.28 160.56 212.33 160.51 217.38 C 159.65 218.33 158.80 219.28 157.95 220.23 C 156.03 220.24 154.11 220.24 152.19 220.24 C 152.53 219.45 152.87 218.66 153.21 217.87 C 155.12 217.67 157.03 217.46 158.93 217.23 C 158.99 213.04 158.85 208.85 158.94 204.67 Z" />
<path fill="#c6c6c4" opacity="1.00" d=" M 314.10 207.35 C 314.46 207.93 315.18 209.10 315.54 209.68 C 315.49 213.17 315.40 216.67 315.26 220.17 C 308.17 220.28 301.07 220.58 294.00 220.24 C 292.32 220.41 291.17 219.25 290.21 218.07 C 298.06 217.12 305.99 218.22 313.84 217.30 C 313.86 213.98 313.93 210.66 314.10 207.35 Z" />
<path fill="#c6c6c4" opacity="1.00" d=" M 120.08 223.16 C 120.20 220.90 120.32 218.63 120.58 216.38 C 121.30 216.98 122.02 217.57 122.75 218.17 C 121.86 219.84 120.98 221.50 120.08 223.16 Z" />
<path fill="#c6c6c4" opacity="1.00" d=" M 35.07 217.95 C 45.62 217.43 56.19 217.67 66.74 217.78 C 66.84 218.38 67.04 219.59 67.14 220.19 C 56.87 220.28 46.57 220.63 36.32 220.07 C 36.00 219.54 35.38 218.48 35.07 217.95 Z" />
<path fill="#c6c6c4" opacity="1.00" d=" M 86.15 217.76 C 88.35 217.73 90.56 217.70 92.77 217.68 C 92.57 218.33 92.17 219.63 91.96 220.28 C 90.23 220.26 88.50 220.25 86.77 220.24 C 86.61 219.62 86.30 218.38 86.15 217.76 Z" />
<path fill="#c6c6c4" opacity="1.00" d=" M 352.03 217.88 C 354.27 217.82 356.51 217.76 358.76 217.72 C 359.03 218.37 359.57 219.66 359.84 220.31 C 357.90 220.27 355.95 220.22 354.02 220.18 C 353.35 219.41 352.68 218.65 352.03 217.88 Z" />
<path fill="#c6c6c4" opacity="1.00" d=" M 419.25 217.67 C 421.45 217.67 423.67 217.68 425.88 217.70 C 425.74 218.33 425.45 219.61 425.30 220.24 C 423.56 220.26 421.83 220.28 420.10 220.31 C 419.89 219.65 419.46 218.33 419.25 217.67 Z" />
<path fill="#c6c6c4" opacity="1.00" d=" M 447.27 223.38 C 449.17 227.33 448.36 231.82 448.27 236.03 C 446.22 236.27 444.17 236.47 442.14 236.81 C 442.30 235.84 442.47 234.87 442.63 233.91 C 443.96 233.81 445.31 233.72 446.66 233.63 C 446.75 230.21 446.93 226.79 447.27 223.38 Z" />
<path fill="#c6c6c4" opacity="1.00" d=" M 315.14 247.30 C 316.84 240.07 314.17 232.40 316.66 225.35 C 317.49 233.53 317.27 241.79 316.93 250.00 C 313.44 250.17 309.95 250.33 306.46 250.50 C 305.17 249.51 303.83 248.58 302.51 247.65 C 306.72 247.61 310.94 247.63 315.14 247.30 Z" />
<path fill="#c6c6c4" opacity="1.00" d=" M 58.29 226.89 C 58.71 226.87 59.54 226.85 59.95 226.83 C 60.39 234.65 60.19 242.47 60.03 250.29 C 52.21 251.62 44.19 250.93 36.30 250.63 C 36.09 249.95 35.68 248.59 35.47 247.91 C 43.02 248.17 50.58 247.90 58.14 247.91 C 58.31 240.91 58.33 233.89 58.29 226.89 Z" />
<path fill="#c6c6c4" opacity="1.00" d=" M 447.22 239.31 C 449.15 243.40 448.33 248.03 448.32 252.38 C 445.73 252.38 443.16 252.36 440.58 252.35 C 440.59 251.76 440.61 250.58 440.62 250.00 C 442.65 249.93 444.68 249.87 446.72 249.81 C 446.78 246.30 446.99 242.80 447.22 239.31 Z" />
<path fill="#c6c6c4" opacity="1.00" d=" M 477.89 239.49 C 480.96 242.85 478.87 248.13 479.25 252.29 C 471.26 252.37 463.22 252.82 455.26 252.13 C 455.11 251.58 454.81 250.48 454.67 249.93 C 462.38 249.92 470.09 249.87 477.80 249.82 C 477.79 246.37 477.80 242.93 477.89 239.49 Z" />
<path fill="#c6c6c4" opacity="1.00" d=" M 65.21 248.32 C 67.24 248.14 69.27 247.99 71.30 247.84 C 71.33 248.71 71.38 250.45 71.41 251.31 C 68.92 251.25 66.38 250.81 65.21 248.32 Z" />
<path fill="#c6c6c4" opacity="1.00" d=" M 173.34 247.69 C 185.38 247.40 197.42 247.55 209.46 247.62 C 208.19 248.54 206.90 249.44 205.66 250.41 C 194.40 249.99 183.12 250.48 171.85 250.11 C 172.22 249.50 172.97 248.30 173.34 247.69 Z" />
<path fill="#c6c6c4" opacity="1.00" d=" M 216.56 247.62 C 242.88 247.49 269.20 247.52 295.52 247.60 C 294.67 248.49 293.83 249.40 293.01 250.32 C 268.32 250.16 243.62 250.26 218.93 250.27 C 218.15 249.37 217.36 248.49 216.56 247.62 Z" />
<path fill="#c6c6c4" opacity="1.00" d=" M 321.18 248.26 C 327.06 247.85 332.96 247.89 338.86 248.02 C 339.39 248.89 339.93 249.77 340.48 250.64 C 335.00 250.83 329.47 251.53 324.01 250.73 C 322.57 250.66 321.98 249.19 321.18 248.26 Z" />
</g>
<g id="#fec479ff">
<path fill="#fec479" opacity="1.00" d=" M 138.22 148.23 C 139.87 148.15 141.52 148.14 143.17 148.10 C 145.01 149.73 147.61 151.20 147.82 153.93 C 148.43 156.93 146.15 159.27 144.02 160.98 C 142.37 162.21 140.73 163.47 139.11 164.76 C 135.17 168.27 130.28 170.88 127.14 175.19 C 125.49 179.55 125.52 184.33 124.69 188.88 C 124.61 189.48 124.44 190.69 124.35 191.29 C 124.28 191.82 124.13 192.86 124.05 193.39 C 122.90 201.05 121.84 208.73 120.58 216.38 C 120.32 218.63 120.20 220.90 120.08 223.16 C 120.98 221.50 121.86 219.84 122.75 218.17 C 124.47 214.91 126.34 211.72 128.00 208.42 C 128.70 207.10 129.44 205.79 130.17 204.49 C 132.64 200.18 135.10 195.86 137.38 191.45 C 137.71 190.83 138.37 189.60 138.70 188.99 C 140.46 185.81 142.29 182.67 143.88 179.41 C 144.21 178.78 144.88 177.52 145.21 176.89 C 146.97 175.56 148.87 174.42 150.86 173.47 C 156.79 170.88 162.66 168.13 168.55 165.44 C 172.50 163.74 176.29 161.72 180.21 159.98 C 183.80 158.62 187.13 156.45 190.95 155.75 C 194.23 155.39 196.13 158.38 197.92 160.58 C 197.68 161.25 197.20 162.61 196.97 163.29 C 196.80 163.68 196.46 164.47 196.29 164.86 C 193.00 170.43 186.60 172.84 181.71 176.71 C 179.88 177.97 178.05 179.23 176.24 180.51 C 175.90 180.74 175.23 181.21 174.89 181.45 C 171.62 183.68 167.84 185.44 165.51 188.77 C 165.24 189.37 164.71 190.56 164.45 191.16 C 162.87 194.82 161.33 198.50 159.99 202.26 C 159.73 202.86 159.20 204.06 158.94 204.67 C 156.77 208.95 155.03 213.43 153.21 217.87 C 152.87 218.66 152.53 219.45 152.19 220.24 C 151.70 221.36 151.21 222.47 150.72 223.60 C 149.63 226.11 148.66 228.67 147.78 231.27 C 150.03 229.05 152.14 226.70 154.24 224.34 C 155.47 222.97 156.71 221.60 157.95 220.23 C 158.80 219.28 159.65 218.33 160.51 217.38 C 162.49 215.18 164.49 212.99 166.45 210.77 C 171.47 205.17 176.51 199.60 181.48 193.96 C 182.28 193.08 183.11 192.22 183.95 191.39 C 184.79 190.64 185.37 189.73 185.70 188.66 C 192.09 186.01 199.14 186.72 205.86 185.88 L 207.13 185.76 C 209.21 185.59 211.30 185.47 213.39 185.31 C 218.98 184.97 224.55 183.95 230.16 184.29 C 232.88 184.39 235.02 186.27 236.87 188.07 C 237.14 188.68 237.68 189.89 237.95 190.50 C 237.91 191.18 237.82 192.54 237.78 193.21 C 236.61 197.70 231.85 199.07 227.75 199.25 C 225.92 199.47 224.09 199.67 222.27 199.92 L 220.98 200.10 C 215.00 200.97 208.93 201.16 203.02 202.43 C 199.86 203.23 198.37 206.50 196.77 209.01 C 194.00 213.63 191.31 218.29 188.48 222.87 C 183.30 231.07 178.42 239.44 173.34 247.69 C 172.97 248.30 172.22 249.50 171.85 250.11 C 170.47 252.40 168.83 254.58 167.88 257.11 C 167.46 259.70 167.90 262.34 168.06 264.95 C 168.62 271.94 169.14 278.93 169.57 285.93 C 173.69 284.32 177.73 282.54 181.77 280.77 C 188.63 278.35 190.25 270.39 193.93 264.92 C 196.97 259.46 200.77 254.35 205.66 250.41 C 206.90 249.44 208.19 248.54 209.46 247.62 C 211.83 247.63 214.19 247.62 216.56 247.62 C 217.36 248.49 218.15 249.37 218.93 250.27 C 222.32 254.98 218.95 260.33 217.22 264.95 C 213.36 274.87 209.56 284.82 205.74 294.75 C 204.83 297.27 203.05 299.30 201.13 301.11 C 192.45 309.43 184.35 318.38 174.99 325.97 C 165.25 333.81 154.09 339.53 143.49 346.07 C 120.11 341.91 96.73 337.72 73.36 333.52 C 72.91 310.66 72.23 287.80 71.72 264.94 C 71.61 260.40 71.50 255.86 71.41 251.31 C 71.38 250.45 71.33 248.71 71.30 247.84 C 70.70 239.44 68.78 231.21 67.56 222.89 C 67.42 221.99 67.28 221.09 67.14 220.19 C 67.04 219.59 66.84 218.38 66.74 217.78 C 66.02 212.53 64.74 207.34 64.53 202.03 C 64.41 199.18 66.03 196.71 67.70 194.55 C 68.54 193.51 69.42 192.50 70.29 191.48 C 71.02 190.63 71.75 189.78 72.49 188.94 C 76.08 184.92 79.64 180.88 83.07 176.73 C 83.81 175.88 84.56 175.04 85.30 174.19 C 86.67 172.65 88.01 171.08 89.42 169.57 C 91.37 168.50 93.59 166.89 95.92 167.71 C 98.46 168.73 98.66 171.87 99.61 174.07 C 96.43 179.01 93.26 183.95 90.10 188.91 L 89.18 190.31 C 88.58 191.23 87.99 192.14 87.40 193.07 C 85.34 196.42 82.37 199.79 82.86 204.02 C 83.37 208.72 85.06 213.18 86.15 217.76 C 86.30 218.38 86.61 219.62 86.77 220.24 C 87.40 222.90 88.01 225.56 88.66 228.22 C 90.00 225.67 91.14 223.03 91.96 220.28 C 92.17 219.63 92.57 218.33 92.77 217.68 C 94.60 211.80 96.94 206.06 98.01 199.97 C 98.72 199.12 99.22 198.18 99.50 197.13 C 100.08 195.21 100.73 193.31 101.38 191.41 C 101.59 190.79 102.01 189.55 102.23 188.93 C 104.17 183.46 105.75 177.87 107.67 172.39 C 108.61 169.39 111.32 167.56 113.68 165.74 C 114.78 164.93 115.90 164.15 117.00 163.35 C 118.42 162.29 119.81 161.20 121.21 160.12 C 126.36 156.40 131.11 152.08 136.68 148.97 C 137.07 148.79 137.84 148.42 138.22 148.23 Z" />
<path fill="#fec479" opacity="1.00" d=" M 368.60 148.58 C 374.44 146.54 379.22 151.55 383.60 154.57 C 383.88 154.79 384.44 155.22 384.71 155.43 C 385.04 155.70 385.71 156.23 386.04 156.49 C 387.69 157.77 389.39 158.99 391.07 160.23 C 391.28 160.38 391.69 160.69 391.89 160.84 C 392.90 161.63 393.91 162.42 394.92 163.22 C 395.97 164.03 397.05 164.83 398.12 165.63 C 400.51 167.52 403.31 169.36 404.31 172.41 C 406.24 177.84 407.81 183.40 409.75 188.83 C 409.96 189.47 410.38 190.74 410.59 191.38 C 411.22 193.31 411.87 195.25 412.52 197.19 C 414.79 204.01 416.95 210.86 419.25 217.67 C 419.46 218.33 419.89 219.65 420.10 220.31 C 420.96 223.03 421.84 225.74 422.85 228.41 C 423.89 225.76 424.82 223.06 425.30 220.24 C 425.45 219.61 425.74 218.33 425.88 217.70 C 426.91 213.11 428.62 208.66 429.13 203.97 C 429.60 199.59 426.47 196.10 424.31 192.63 C 424.05 192.24 423.54 191.46 423.28 191.06 C 422.93 190.52 422.24 189.42 421.89 188.88 C 418.75 183.91 415.52 179.00 412.37 174.03 C 413.20 172.03 413.48 169.53 415.27 168.10 C 417.46 166.65 419.97 168.27 422.06 169.11 C 422.66 169.72 423.28 170.32 423.92 170.92 C 425.59 172.81 427.19 174.77 428.84 176.69 C 432.33 180.85 435.91 184.93 439.51 189.01 C 440.22 189.82 440.93 190.64 441.65 191.46 C 442.54 192.50 443.45 193.53 444.33 194.59 C 450.29 201.09 445.86 210.09 445.27 217.67 C 445.17 218.31 444.98 219.57 444.88 220.20 C 444.85 220.43 444.78 220.88 444.75 221.10 C 444.00 225.36 443.24 229.62 442.63 233.91 C 442.47 234.87 442.30 235.84 442.14 236.81 L 441.98 237.65 C 441.21 241.72 440.69 245.85 440.62 250.00 C 440.61 250.58 440.59 251.76 440.58 252.35 C 440.53 256.54 440.42 260.74 440.31 264.93 C 439.71 287.81 439.10 310.70 438.63 333.58 C 415.26 337.76 391.91 342.03 368.52 346.08 C 358.19 339.55 347.16 334.07 337.57 326.42 C 327.78 318.60 319.39 309.25 310.36 300.61 C 308.35 298.80 306.81 296.53 305.93 293.98 C 302.28 284.27 298.51 274.61 294.78 264.93 C 293.11 260.32 289.68 255.03 293.01 250.32 C 293.83 249.40 294.67 248.49 295.52 247.60 C 297.85 247.63 300.18 247.65 302.51 247.65 C 303.83 248.58 305.17 249.51 306.46 250.50 C 311.30 254.43 315.02 259.55 318.09 264.93 C 320.88 269.48 322.76 274.70 326.40 278.66 C 331.46 281.62 337.06 283.55 342.41 285.91 C 342.90 278.93 343.34 271.94 343.93 264.97 C 344.08 262.36 344.53 259.71 344.08 257.12 C 343.23 254.78 341.76 252.75 340.48 250.64 C 339.93 249.77 339.39 248.89 338.86 248.02 C 333.96 239.88 328.99 231.78 324.07 223.66 C 321.23 218.99 318.41 214.32 315.54 209.68 C 315.18 209.10 314.46 207.93 314.10 207.35 C 312.78 205.37 311.46 202.90 308.90 202.42 C 302.57 201.16 296.10 200.74 289.71 199.87 C 287.87 199.67 286.03 199.52 284.20 199.31 L 282.94 199.12 C 279.04 199.08 275.84 196.86 273.85 193.62 C 274.36 191.59 274.83 189.55 275.41 187.54 C 277.58 185.81 280.07 184.07 282.98 184.20 C 288.26 184.19 293.51 184.94 298.78 185.26 L 300.24 185.38 C 302.05 185.52 303.87 185.68 305.68 185.83 C 311.14 186.37 316.65 186.46 322.09 187.26 C 323.63 187.46 324.94 188.36 326.19 189.23 C 327.06 190.11 327.90 191.03 328.73 191.96 C 329.25 192.54 329.78 193.14 330.30 193.73 C 335.16 199.20 340.03 204.66 344.98 210.05 C 345.28 210.38 345.86 211.05 346.16 211.38 C 347.71 213.10 349.29 214.79 350.84 216.52 C 351.14 216.86 351.73 217.54 352.03 217.88 C 352.68 218.65 353.35 219.41 354.02 220.18 C 355.21 221.54 356.42 222.89 357.64 224.25 C 359.76 226.65 361.91 229.04 364.19 231.30 C 363.34 228.70 362.38 226.13 361.28 223.63 C 360.80 222.52 360.31 221.42 359.84 220.31 C 359.57 219.66 359.03 218.37 358.76 217.72 C 356.51 212.25 354.13 206.84 351.83 201.40 C 350.45 198.00 349.01 194.62 347.57 191.25 C 347.29 190.60 346.72 189.29 346.44 188.64 C 344.08 185.55 340.57 183.72 337.45 181.52 C 335.50 180.19 333.54 178.88 331.57 177.58 C 331.16 177.31 330.35 176.76 329.94 176.48 C 325.10 172.76 319.15 170.17 315.60 165.02 C 315.45 164.52 315.15 163.52 315.00 163.03 C 314.93 162.30 314.79 160.86 314.72 160.14 C 315.73 157.93 317.64 156.46 319.92 155.73 C 320.69 155.79 322.22 155.92 322.98 155.99 L 324.08 156.51 C 325.77 157.32 327.45 158.12 329.16 158.90 C 330.25 159.39 331.36 159.87 332.48 160.34 C 334.53 161.28 336.54 162.30 338.63 163.18 C 339.85 163.73 341.07 164.28 342.30 164.85 C 348.49 167.71 354.61 170.75 360.98 173.20 C 361.20 173.29 361.64 173.49 361.86 173.58 C 363.72 174.63 365.49 175.87 367.09 177.31 C 368.98 181.31 371.12 185.17 373.34 188.99 C 373.66 189.60 374.32 190.81 374.65 191.41 C 377.24 196.36 380.00 201.22 382.68 206.13 C 385.45 210.48 386.77 216.16 391.38 219.01 C 390.75 210.52 389.14 202.14 388.00 193.71 C 387.91 193.09 387.73 191.87 387.64 191.25 C 387.55 190.66 387.38 189.46 387.29 188.86 C 386.33 184.12 386.66 178.94 384.46 174.55 C 381.15 170.63 376.60 168.03 372.78 164.66 C 372.00 164.06 371.22 163.47 370.44 162.88 C 369.14 161.90 367.84 160.95 366.60 159.91 C 362.54 156.83 363.84 150.15 368.60 148.58 Z" />
</g>
<g id="#154e5eff">
<path fill="#154e5e" opacity="1.00" d=" M 46.47 397.66 C 49.53 380.50 53.57 363.52 57.16 346.46 C 86.41 351.63 115.63 356.96 144.88 362.13 C 146.08 362.37 147.27 362.62 148.47 362.90 C 144.11 384.29 139.38 405.61 134.91 426.98 C 133.42 433.46 132.37 440.04 130.50 446.42 C 110.76 435.34 91.30 423.78 71.62 412.61 C 71.55 412.57 71.42 412.50 71.36 412.46 C 63.01 407.62 54.51 403.00 46.47 397.66 Z" />
<path fill="#154e5e" opacity="1.00" d=" M 366.03 362.28 C 395.68 357.23 425.27 351.80 454.86 346.42 C 458.36 363.51 462.50 380.48 465.52 397.66 C 461.50 400.68 456.99 402.93 452.67 405.49 C 452.61 405.52 452.48 405.60 452.41 405.64 C 450.22 406.99 448.01 408.28 445.74 409.48 C 445.65 409.53 445.48 409.63 445.39 409.68 C 443.81 410.61 442.25 411.55 440.66 412.46 C 440.60 412.49 440.46 412.57 440.39 412.61 C 420.74 423.84 401.25 435.36 381.53 446.46 C 380.18 442.10 379.33 437.61 378.42 433.15 C 373.45 410.01 368.58 386.85 363.59 363.71 C 364.40 363.23 365.21 362.75 366.03 362.28 Z" />
</g>
<g id="#5da86fd7">
<path fill="#5da86f" opacity="0.84" d=" M 452.41 405.64 C 452.48 405.60 452.61 405.52 452.67 405.49 L 452.55 405.56 L 452.41 405.64 Z" />
<path fill="#5da86f" opacity="0.84" d=" M 445.39 409.68 C 445.48 409.63 445.65 409.53 445.74 409.48 L 445.58 409.57 L 445.39 409.68 Z" />
<path fill="#5da86f" opacity="0.84" d=" M 440.39 412.61 C 440.46 412.57 440.60 412.49 440.66 412.46 L 440.54 412.53 L 440.39 412.61 Z" />
</g>
<g id="#6a8a6f55">
<path fill="#6a8a6f" opacity="0.33" d=" M 71.36 412.46 C 71.42 412.50 71.55 412.57 71.62 412.61 L 71.48 412.53 L 71.36 412.46 Z" />
</g>
</svg>
